<svg viewBox="63.75 51 1045.4999999999998 879.7499999999999" xmlns="http://www.w3.org/2000/svg" xmlns:xlink="http://www.w3.org/1999/xlink" overflow="visible" width="1045.4999999999998px" height="879.7499999999999px"><defs><polygon id="masterspot-illustrationui-design-path-1" points="0 0.855728366 369.150131 0.855728366 369.150131 383.471976 0 383.471976"/><polygon id="masterspot-illustrationui-design-path-3" points="0.44031893 0.957161388 516.594 0.957161388 516.594 167.536028 0.44031893 167.536028"/></defs><g id="Master/Spot Illustration/UI Design" stroke="none" stroke-width="1" fill="none" fill-rule="evenodd"><g id="UI" transform="translate(-28.000000, -17.000000) scale(1 1)"><defs><polygon id="uiscreen-3-path-1" points="0.992323803 0.925534821 324.0948 0.925534821 324.0948 103 0.992323803 103"/><polygon id="uiscreen-3-path-3" points="0 669.408 1030.402 669.408 1030.402 0 0 0"/></defs><g id="UI/Screen 3" stroke="none" stroke-width="1" fill="none" fill-rule="evenodd"><g id="Group-45" transform="translate(101.000000, 77.000000)"><path d="M44.8688,577.1866 C44.8688,577.1866 35.4478,624.2976 90.2668,622.5846 C145.0888,620.8726 799.5138,622.6306 799.5138,622.6306 C799.5138,622.6306 853.4778,628.1066 861.1858,570.7156 C867.4618,524.0066 900.4018,241.0096 912.4478,137.2876 L101.0568,137.2876 C86.7578,253.0726 44.8688,577.1866 44.8688,577.1866" id="Fill-1" fill="#CBB1F4"/><path d="M876.6051,40.9659 C821.7841,38.4009 176.7821,40.9699 176.7821,40.9699 C176.7821,40.9699 112.5391,39.2569 104.8301,106.0699 C104.0231,113.0609 102.7281,123.7569 101.0561,137.2869 L912.4481,137.2869 C915.2021,113.5689 916.8641,99.2169 916.8641,99.2169 C916.8641,99.2169 931.4251,43.5309 876.6051,40.9659" id="Fill-3" fill="#8C72CB"/><path d="M150.3668,96.0255 C151.3158,108.7445 171.6268,106.8455 172.5758,95.4795 C173.8378,80.3685 149.2008,80.4045 150.3668,96.0255" id="Fill-5" fill="#4D33A2"/><path d="M214.9166,96.0255 C215.8656,108.7445 236.1776,106.8455 237.1266,95.4795 C238.3886,80.3685 213.7516,80.4045 214.9166,96.0255" id="Fill-7" fill="#4D33A2"/><path d="M281.4732,96.0255 C282.4222,108.7445 302.7332,106.8455 303.6822,95.4795 C304.9442,80.3685 280.3072,80.4045 281.4732,96.0255" id="Fill-9" fill="#4D33A2"/><polygon id="Fill-11" fill="#FEF864" points="180.5855 196.2247 94.9285 509.3027 563.9035 526.2207 596.4535 199.2227"/><g id="Group-15" transform="translate(167.000000, 566.408000)"><mask id="uiscreen-3-mask-2" fill="#ffffff"><use xlink:href="#uiscreen-3-path-1" fill="#ffffff"/></mask><g id="Clip-14"/><path d="M261.9928,0.928 L58.1278,0.928 C58.1278,0.928 5.0198,1.357 1.1658,52.323 C-2.6892,103.289 58.9838,100.719 58.9838,100.719 L261.9928,102.861 C261.9928,102.861 324.0868,108.007 324.0948,55.749 C324.1028,-0.357 261.9928,0.928 261.9928,0.928" id="Fill-13" fill="#FF71DB" mask="url(#uiscreen-3-mask-2)"/></g><path d="M815.7369,621.7286 L827.7289,435.4226 C827.7289,435.4226 830.2989,418.2916 811.4539,417.4356 C792.6089,416.5786 678.2569,414.0086 678.2569,414.0086 C678.2569,414.0086 659.4119,414.0086 657.6989,433.7096 C656.3699,448.9906 644.8069,622.2726 644.8069,622.2726 L815.7369,621.7286 Z" id="Fill-16" fill="#DDF77D"/><path d="M766.6158,466.3175 C766.4378,466.3175 766.2478,466.3155 766.0388,466.3135 C763.7388,466.2855 763.7408,466.3095 761.4408,466.2815 C759.7488,466.2605 758.7978,465.8795 758.1008,465.5995 C757.6468,465.4195 757.4588,465.3435 756.8468,465.3365 C755.2808,465.3175 754.3878,465.0425 753.7378,464.8415 C753.2568,464.6945 752.9908,464.6135 752.2568,464.6035 C750.3308,464.5795 749.2418,463.9325 748.5208,463.5055 C748.0838,463.2455 748.0498,463.2225 747.6768,463.2185 C747.4498,463.2545 747.2538,463.3985 747.1238,463.4945 C746.3948,464.0305 745.1478,464.8685 743.0558,464.9005 C742.1178,464.8865 741.7028,464.9455 741.1768,465.0155 C740.5388,465.1015 739.8238,465.2125 738.4528,465.1815 C736.3018,465.1555 735.0998,464.1855 734.3838,463.6055 C734.2518,463.5005 734.0718,463.3535 734.0098,463.3235 C733.2868,463.3285 733.1738,463.3745 732.7198,463.5605 C732.0418,463.8395 731.0128,464.2345 729.2798,464.2385 L724.6878,464.1795 C723.1538,464.1595 722.3158,463.9225 721.6408,463.7345 C721.1558,463.5965 720.8618,463.5135 720.0928,463.5045 C718.6718,463.4875 717.8868,463.3275 717.2568,463.1985 C716.7638,463.0985 716.4018,463.0245 715.5908,463.0115 C715.4828,463.1025 715.3898,463.2135 715.2908,463.3135 C714.5818,464.0405 713.2458,465.4335 710.8728,465.3565 C709.4218,465.3385 708.6238,465.1605 707.9818,465.0185 C707.4858,464.9095 707.1278,464.8285 706.2758,464.8195 C705.5838,464.8305 705.3138,464.8865 704.8448,465.0285 C704.1768,465.2305 703.2978,465.4985 701.6698,465.4855 C700.3938,465.4675 699.7568,465.4045 699.1208,465.3395 C698.6068,465.2895 698.0978,465.2385 697.0738,465.2245 C695.2438,465.2025 694.1928,464.6645 693.4968,464.3075 C693.0518,464.0795 692.9588,464.0325 692.4868,464.0265 C691.8628,464.0175 691.5818,464.0945 691.1158,464.2455 C690.4358,464.4675 689.4908,464.7695 687.8788,464.7515 C686.2028,464.7305 685.2578,464.3625 684.5688,464.0945 C684.1068,463.9135 683.9148,463.8395 683.2898,463.8325 C681.1798,463.8035 679.9918,462.8965 679.2808,462.3555 C679.1508,462.2565 678.9548,462.1065 678.8978,462.0835 C677.7638,462.0515 677.3438,462.1065 676.8088,462.1735 C676.2098,462.2485 675.5738,462.3455 674.3038,462.3295 C674.2158,462.4215 674.1018,462.5495 674.0098,462.6555 C673.2948,463.4665 671.9568,464.9695 669.4818,464.9495 C667.1948,464.9215 665.9198,463.7105 665.2348,463.0585 C665.1158,462.9455 665.0068,462.8175 664.8638,462.7265 C664.6938,462.7955 664.5068,462.9345 664.3688,463.0365 C663.6428,463.5835 662.4728,464.4635 660.2908,464.4655 C658.9358,464.4495 658.2188,464.3385 657.5868,464.2425 C657.0578,464.1605 656.6388,464.0945 655.6968,464.0835 C654.0958,464.0625 652.8158,462.7475 652.836545,461.1475 C652.8568,459.5595 654.1508,458.2875 655.7338,458.2875 L655.7718,458.2875 C657.1228,458.3065 657.8378,458.4165 658.4698,458.5135 C658.9978,458.5945 659.4148,458.6595 660.3618,458.6715 C660.5768,458.6365 660.7638,458.4975 660.9018,458.3955 C661.6298,457.8495 662.8678,456.9635 664.9798,456.9645 C667.2668,456.9955 668.5428,458.2065 669.2268,458.8555 C669.2988,458.9245 669.3688,459.0015 669.4418,459.0685 C669.5138,458.9895 669.5938,458.9005 669.6588,458.8255 C670.3748,458.0115 671.7658,456.4615 674.1848,456.5315 C675.1288,456.5425 675.5548,456.4895 676.0868,456.4235 C676.7198,456.3425 677.4278,456.2445 678.7888,456.2705 C680.8938,456.2965 682.0848,457.2055 682.7958,457.7465 C682.9258,457.8455 683.1238,457.9975 683.1798,458.0195 C685.0368,458.0575 685.9798,458.4255 686.6708,458.6935 C687.1338,458.8745 687.3258,458.9485 687.9498,458.9555 C688.5628,458.9385 688.8548,458.8855 689.3218,458.7365 C689.9988,458.5135 690.9798,458.2195 692.5608,458.2315 C694.3908,458.2555 695.4418,458.7935 696.1368,459.1475 C696.5818,459.3765 696.6738,459.4225 697.1448,459.4285 C698.4248,459.4445 699.0618,459.5075 699.6998,459.5745 C700.2108,459.6255 700.7218,459.6755 701.7428,459.6895 C702.4248,459.6775 702.7028,459.6195 703.1738,459.4795 C703.8408,459.2805 704.7348,459.0255 706.3478,459.0235 C707.7998,459.0425 708.5968,459.2195 709.2388,459.3615 C709.7158,459.4665 710.0668,459.5465 710.8528,459.5595 C710.9628,459.4685 711.0528,459.3575 711.1528,459.2565 C711.8548,458.5405 713.1548,457.2135 715.4948,457.2135 L715.5718,457.2135 C716.9948,457.2315 717.7788,457.3915 718.4088,457.5195 C718.9208,457.6235 719.2888,457.6975 720.1658,457.7085 C721.6998,457.7295 722.5368,457.9645 723.2128,458.1535 C723.6978,458.2915 723.9918,458.3745 724.7618,458.3835 L729.3508,458.4425 C729.9218,458.4575 730.0628,458.3855 730.5148,458.1995 C731.1928,457.9205 732.2758,457.4855 733.9548,457.5215 C736.1058,457.5475 737.3068,458.5175 738.0238,459.0965 C738.1568,459.2025 738.3358,459.3495 738.3978,459.3805 C739.4638,459.3915 739.8788,459.3395 740.4068,459.2705 C741.0448,459.1855 741.7708,459.0895 743.1298,459.1045 C743.3598,459.0705 743.5488,458.9305 743.6838,458.8295 C744.4108,458.2915 745.5838,457.4125 747.7498,457.4235 C749.6768,457.4505 750.7618,458.0945 751.4828,458.5235 C751.9218,458.7825 751.9548,458.8045 752.3288,458.8085 C753.8938,458.8275 754.7888,459.1025 755.4398,459.3025 C755.9208,459.4505 756.1868,459.5315 756.9188,459.5405 C758.6088,459.5615 759.5598,459.9425 760.2568,460.2195 C760.7108,460.4025 760.8988,460.4775 761.5118,460.4855 C763.8078,460.5095 763.8098,460.4875 766.1118,460.5175 C767.1558,460.5365 767.6848,460.5035 768.2118,460.4725 C768.8408,460.4385 769.4628,460.4065 770.7198,460.4205 C770.9198,460.4145 770.9238,460.4225 771.3128,460.1435 C772.0248,459.6405 773.2098,458.7985 775.2468,458.7985 L775.3398,458.7985 C777.3088,458.8255 778.4568,459.5475 779.1408,459.9795 C779.5848,460.2585 779.5928,460.2645 779.9268,460.2685 C779.9148,460.2325 780.0278,460.0925 780.1538,459.9665 C780.8558,459.2605 782.1538,457.9575 784.4798,457.9575 L784.5608,457.9575 C786.7418,457.9835 787.9518,458.9975 788.6748,459.6025 C788.8058,459.7125 788.9848,459.8635 789.0498,459.8945 C789.8628,459.9345 790.1778,459.8255 790.6528,459.6975 C791.3058,459.5175 792.1848,459.3175 793.7568,459.2955 C794.1628,459.3045 794.2508,459.2665 794.6958,459.0365 C795.4148,458.6675 796.4168,458.1325 798.3698,458.1295 C800.1368,458.1515 801.1638,458.6235 801.8408,458.9365 C802.2898,459.1445 802.4258,459.2065 802.9598,459.2125 C803.8448,459.2305 804.2648,459.1595 804.7738,459.0785 C805.3948,458.9785 806.1648,458.8745 807.5718,458.8725 C809.2718,458.8955 810.2268,459.2825 810.9228,459.5645 C811.3778,459.7485 811.5638,459.8235 812.1718,459.8315 C812.4468,459.8335 812.4318,459.8335 812.8488,459.5575 C813.5518,459.0905 814.7188,458.3175 816.7078,458.3175 L816.8018,458.3175 C818.4698,458.3385 819.4108,458.6955 820.0988,458.9575 C820.5598,459.1305 820.7688,459.2125 821.4108,459.2195 C823.0138,459.2405 823.9278,459.5445 824.5938,459.7645 C825.0728,459.9245 825.3138,460.0055 826.0168,460.0135 C827.6178,460.0345 828.8978,461.3475 828.879988,462.9475 C828.8608,464.5365 827.5668,465.8095 825.9818,465.8095 L825.9458,465.8095 C824.3408,465.7895 823.4278,465.4855 822.7618,465.2645 C822.2818,465.1035 822.0408,465.0225 821.3368,465.0155 C819.6698,464.9925 818.7278,464.6355 818.0408,464.3765 C817.5828,464.2005 817.3718,464.1215 816.7298,464.1135 C816.4748,464.1135 816.4698,464.1095 816.0538,464.3865 C815.3418,464.8605 814.1998,465.6625 812.0978,465.6275 C810.3998,465.6055 809.4458,465.2185 808.7478,464.9355 C808.2928,464.7515 808.1058,464.6755 807.4988,464.6685 C806.6218,464.6295 806.1928,464.7205 805.6858,464.8015 C805.0628,464.9025 804.3038,464.9985 802.8878,465.0075 C801.1198,464.9855 800.0938,464.5135 799.4168,464.2005 C798.9678,463.9935 798.8318,463.9305 798.2978,463.9245 C797.8498,463.9325 797.8018,463.9575 797.3558,464.1855 C796.6408,464.5565 795.5698,465.1475 793.6828,465.0905 C792.9488,465.1155 792.6508,465.1605 792.1718,465.2895 C791.5188,465.4655 790.6268,465.7005 789.0678,465.6905 C786.8838,465.6625 785.6768,464.6495 784.9538,464.0465 C784.8238,463.9365 784.6438,463.7855 784.5798,463.7515 C784.4988,463.7895 784.3868,463.9285 784.2598,464.0545 C783.5508,464.7685 782.2448,466.1195 779.8518,466.0645 C777.8848,466.0405 776.7378,465.3155 776.0508,464.8825 C775.6168,464.6095 775.5998,464.5985 775.2658,464.5945 C775.0418,464.5815 775.0598,464.5905 774.6698,464.8705 C773.9468,465.3825 772.7438,466.2775 770.6458,466.2145 C769.5878,466.2025 769.0608,466.2325 768.5308,466.2585 C768.0138,466.2895 767.4928,466.3175 766.6158,466.3175" id="Fill-18" fill="#A2D249"/><path d="M800.0358,511.7315 L799.9558,511.7315 C798.1298,511.7125 797.0788,511.1825 796.3808,510.8325 C795.9408,510.6105 795.8358,510.5575 795.3578,510.5525 C793.6078,510.5355 792.5888,510.0815 791.9138,509.7805 C791.4668,509.5835 791.3148,509.5145 790.7648,509.5085 C790.6818,509.5285 790.5008,509.6845 790.3688,509.7975 C789.6778,510.3915 788.4028,511.4905 786.1988,511.4905 L786.1328,511.4905 C783.9618,511.4675 782.7528,510.4785 782.0318,509.8885 C781.8968,509.7805 781.7168,509.6315 781.6518,509.5995 C781.1478,509.6035 781.0828,509.6225 780.6398,509.8625 C779.9148,510.2575 778.8168,510.8225 776.9188,510.8325 C774.4888,510.8045 773.1928,509.3635 772.4968,508.5875 C772.4608,508.5465 772.4248,508.5045 772.3898,508.4635 C772.3438,508.5145 772.3028,508.5655 772.2628,508.6135 C771.5478,509.4615 770.1868,510.9905 767.6948,511.0225 C765.6818,511.0015 764.5158,510.2235 763.8178,509.7595 C763.3908,509.4735 763.3908,509.4735 763.1008,509.4715 C761.3918,509.4525 760.4328,509.0585 759.7318,508.7715 C759.2728,508.5815 759.0988,508.5105 758.5058,508.5045 C758.0298,508.5375 757.9338,508.5465 757.4788,508.7635 C756.7748,509.0995 755.7418,509.5315 753.8838,509.5915 C752.6908,509.5815 752.0928,509.5565 751.4948,509.5315 C750.9418,509.5085 750.3898,509.4885 749.2818,509.4765 C747.3688,509.4565 746.2838,508.8305 745.5648,508.4175 C745.1278,508.1625 745.0808,508.1355 744.6918,508.1315 C744.6818,508.1725 744.5708,508.3095 744.4448,508.4335 C743.7448,509.1265 742.4468,510.4115 740.1258,510.4115 L740.0638,510.4115 C738.5568,510.3955 737.7278,510.1805 737.0638,510.0065 C736.5788,509.8805 736.2608,509.7975 735.4648,509.7905 C733.6888,509.7715 732.6608,509.2935 731.9798,508.9785 C731.5348,508.7735 731.3998,508.7105 730.8738,508.7055 L726.2778,508.6785 C725.9898,508.6925 725.9728,508.6745 725.5308,508.9505 C724.8318,509.3865 723.6708,510.0835 721.6658,510.0955 C719.8478,510.0775 718.7998,509.5565 718.1068,509.2125 C717.6618,508.9925 717.5568,508.9395 717.0678,508.9335 C716.6698,508.9185 716.6398,508.9565 716.1958,509.2015 C715.4788,509.5995 714.3998,510.1975 712.5378,510.1975 L712.4518,510.1975 C710.8548,510.1805 709.9478,509.8865 709.2858,509.6705 C708.8178,509.5185 708.5588,509.4355 707.8518,509.4275 C706.0628,509.4115 705.0258,508.9175 704.3388,508.5895 C703.8898,508.3775 703.7688,508.3205 703.2568,508.3145 C702.9318,508.2995 702.9298,508.3165 702.4858,508.5865 C701.7888,509.0125 700.5528,509.7795 698.6358,509.7055 C696.4828,509.6845 695.2798,508.7165 694.5588,508.1395 C694.4268,508.0325 694.2438,507.8865 694.1818,507.8565 C693.4478,507.8375 693.2458,507.9155 692.7838,508.0855 C692.0838,508.3445 691.1248,508.6745 689.4378,508.6845 C688.0518,508.6705 687.2858,508.5375 686.6708,508.4315 C686.1578,508.3425 685.7518,508.2735 684.8358,508.2635 C683.3318,508.2475 682.5078,508.0355 681.8458,507.8665 C681.3578,507.7415 681.0358,507.6585 680.2358,507.6505 C679.7868,507.6375 679.7038,507.6865 679.2528,507.9115 C678.5458,508.2655 677.3868,508.7885 675.6208,508.7825 C675.2798,508.7885 675.2678,508.7925 674.8268,509.0525 C674.1328,509.4675 672.9498,510.1785 671.0048,510.1425 C668.8118,510.1205 667.5988,509.0995 666.8748,508.4885 C666.7448,508.3785 666.5648,508.2275 666.5008,508.1945 C665.1198,508.1845 664.4318,508.1055 663.8238,508.0375 C663.3218,507.9805 662.8198,507.9235 661.8168,507.9155 C661.1048,507.9095 660.8398,507.9845 660.3638,508.1265 C659.6998,508.3205 658.7258,508.5615 657.2058,508.5775 C656.0618,508.5635 655.5028,508.5675 654.9338,508.5735 C654.3548,508.5775 653.7698,508.5815 652.6038,508.5695 C651.0048,508.5545 649.7198,507.2435 649.73467,505.6435 C649.7498,504.0525 651.0458,502.7735 652.6328,502.7735 L652.6608,502.7735 C653.7738,502.7875 654.3388,502.7835 654.8928,502.7775 C655.4868,502.7735 656.0778,502.7705 657.2648,502.7815 C657.9948,502.7945 658.2378,502.7115 658.7138,502.5705 C659.3798,502.3725 660.2978,502.1275 661.8748,502.1195 C663.1758,502.1325 663.8658,502.2105 664.4738,502.2775 C664.9748,502.3345 665.4758,502.3905 666.4778,502.4025 C668.6688,502.4245 669.8818,503.4455 670.6058,504.0545 C670.7378,504.1665 670.9178,504.3175 670.9818,504.3505 L670.9948,504.3505 C671.3988,504.3505 671.4198,504.3375 671.8568,504.0775 C672.5518,503.6625 673.7838,502.9625 675.6798,502.9875 C676.1608,503.0175 676.2158,502.9535 676.6648,502.7265 C677.3718,502.3725 678.4928,501.8095 680.2948,501.8555 C681.7978,501.8725 682.6218,502.0835 683.2848,502.2525 C683.7708,502.3775 684.0938,502.4605 684.8928,502.4675 C686.2778,502.4815 687.0448,502.6155 687.6598,502.7205 C688.1728,502.8095 688.5778,502.8795 689.4948,502.8885 C690.1608,502.9135 690.3048,502.8235 690.7648,502.6535 C691.4648,502.3925 692.4478,502.0565 694.1098,502.0525 C696.2648,502.0765 697.4678,503.0425 698.1868,503.6195 C698.3208,503.7265 698.5018,503.8725 698.5638,503.9025 C699.0278,503.9205 699.0258,503.9115 699.4678,503.6395 C700.1658,503.2135 701.4208,502.5055 703.3138,502.5195 C705.1048,502.5385 706.1418,503.0305 706.8278,503.3565 C707.2758,503.5705 707.3968,503.6275 707.9098,503.6315 C709.5068,503.6495 710.4138,503.9435 711.0758,504.1585 C711.5438,504.3115 711.8028,504.3945 712.5098,504.4025 C712.8858,504.4055 712.9378,504.3785 713.3818,504.1335 C714.0978,503.7365 715.1778,503.1375 717.0398,503.1375 L717.1268,503.1375 C718.9428,503.1575 719.9918,503.6775 720.6838,504.0205 C721.1298,504.2415 721.2348,504.2945 721.7238,504.2995 C722.0318,504.3035 722.0298,504.3035 722.4718,504.0285 C723.1718,503.5925 724.3388,502.9435 726.3348,502.8825 L730.9318,502.9105 C732.7078,502.9285 733.7358,503.4065 734.4178,503.7205 C734.8618,503.9265 734.9968,503.9895 735.5228,503.9945 C737.0298,504.0095 737.8578,504.2245 738.5238,504.3985 C739.0078,504.5245 739.3258,504.6075 740.1208,504.6155 C740.1318,504.5735 740.2428,504.4375 740.3698,504.3135 C741.0688,503.6215 742.3668,502.3355 744.6878,502.3355 L744.7498,502.3355 C746.6628,502.3565 747.7458,502.9835 748.4628,503.3965 C748.9038,503.6515 748.9498,503.6775 749.3408,503.6815 C750.5328,503.6925 751.1308,503.7165 751.7288,503.7415 C752.2818,503.7645 752.8348,503.7855 753.9418,503.7955 C754.4268,503.8135 754.5168,503.7565 754.9718,503.5385 C755.6738,503.2025 756.6958,502.7385 758.5638,502.7105 C760.2708,502.7265 761.2328,503.1215 761.9348,503.4095 C762.3928,503.5985 762.5668,503.6695 763.1598,503.6755 C765.1728,503.6965 766.3388,504.4735 767.0368,504.9375 C767.3248,505.1315 767.4198,505.1945 767.5408,505.2145 C767.6288,505.1175 767.7368,504.9885 767.8248,504.8845 C768.5348,504.0405 769.8488,502.4735 772.3308,502.4735 L772.3898,502.4735 C774.8168,502.5005 776.1128,503.9415 776.8068,504.7145 C776.9038,504.8225 776.9918,504.9375 777.0968,505.0365 C777.3938,505.0305 777.4828,504.9815 777.8758,504.7695 C778.5888,504.3805 779.6598,503.7995 781.5108,503.7995 L781.5978,503.7995 C783.7688,503.8235 784.9778,504.8115 785.6988,505.4025 C785.8328,505.5095 786.0148,505.6585 786.0778,505.6905 C786.2718,505.6755 786.4538,505.5205 786.5858,505.4055 C787.2838,504.8055 788.6288,503.6275 790.8228,503.7125 C792.5758,503.7325 793.5948,504.1845 794.2678,504.4855 C794.7158,504.6845 794.8658,504.7515 795.4168,504.7565 C797.2428,504.7755 798.2938,505.3055 798.9898,505.6565 C799.4298,505.8785 799.5358,505.9315 800.0148,505.9355 C800.2548,505.9435 800.2528,505.9395 800.6538,505.6605 C801.3638,505.1695 802.5428,504.3565 804.5648,504.3565 L804.6458,504.3565 C806.0898,504.3725 806.8858,504.5405 807.5228,504.6755 C808.0268,504.7835 808.3908,504.8605 809.2558,504.8685 C809.6628,504.8745 809.6968,504.8455 810.1438,504.5995 C810.8608,504.2065 811.9378,503.6115 813.7988,503.6115 L813.8858,503.6115 C816.0868,503.6335 817.3018,504.6625 818.0298,505.2755 C818.1208,505.3545 818.2368,505.4535 818.3198,505.5145 C818.4008,505.4245 818.4938,505.3155 818.5688,505.2245 C819.2868,504.3725 820.6158,502.8055 823.1438,502.8115 C824.7458,502.8285 826.0288,504.1395 826.012948,505.7395 C825.9948,507.2635 824.8068,508.5005 823.3118,508.5995 C823.2208,508.7015 823.1008,508.8405 823.0068,508.9545 C822.2958,509.7995 820.9758,511.3675 818.4938,511.3675 L818.4318,511.3675 C816.2318,511.3465 815.0148,510.3185 814.2888,509.7035 C814.1568,509.5915 813.9748,509.4395 813.9118,509.4055 C813.4668,509.3785 813.3898,509.4295 812.9438,509.6745 C812.2138,510.0775 811.0718,510.6035 809.1968,510.6645 C807.7558,510.6485 806.9598,510.4805 806.3218,510.3445 C805.8178,510.2375 805.4538,510.1605 804.5878,510.1525 C804.3428,510.1665 804.3518,510.1505 803.9478,510.4275 C803.2388,510.9185 802.0588,511.7315 800.0358,511.7315" id="Fill-20" fill="#A2D249"/><path d="M816.0094,551.7862 C815.9454,551.7862 815.8804,551.7842 815.8154,551.7842 C814.3834,551.7622 813.5944,551.5992 812.9624,551.4672 C812.4464,551.3612 812.0774,551.2842 811.1954,551.2712 C809.7454,551.2482 808.9474,551.0712 808.3064,550.9282 C807.8044,550.8162 807.4444,550.7372 806.5834,550.7242 C805.4084,550.7072 804.8184,550.6882 804.2294,550.6692 C803.6644,550.6522 803.0994,550.6352 801.9694,550.6182 C800.1034,550.5882 799.0374,550.0132 798.3334,549.6322 C797.9224,549.4092 797.8254,549.3562 797.4544,549.3452 C797.3454,549.4372 797.2524,549.5492 797.1534,549.6502 C796.4394,550.3712 795.1144,551.7692 792.7214,551.6792 C791.3944,551.6582 790.6914,551.5612 790.0704,551.4762 C789.5474,551.4052 789.0954,551.3432 788.1194,551.3272 C785.6324,551.2902 784.3404,549.7312 783.6464,548.8932 C783.5554,548.7842 783.4454,548.6502 783.3584,548.5552 C782.4534,548.5152 782.0034,548.5862 781.5304,548.6282 C780.9554,548.6752 780.3034,548.7392 779.1544,548.7232 C779.0644,548.8222 778.9504,548.9562 778.8584,549.0652 C778.1374,549.9162 776.8734,551.4952 774.2764,551.4582 C772.8494,551.4372 772.0624,551.2742 771.4284,551.1422 C770.9174,551.0372 770.5474,550.9622 769.6684,550.9482 C768.7834,550.9302 768.3684,550.9952 767.8634,551.0782 C767.2354,551.1792 766.4424,551.2962 765.0524,551.2822 C763.0744,551.2522 761.9254,550.5152 761.2384,550.0752 C760.7994,549.7922 760.7914,549.7882 760.4614,549.7822 C758.5524,549.7522 757.4714,549.1222 756.7564,548.7052 C756.3984,548.4982 756.2994,548.4412 756.0644,548.4242 C755.9754,548.5162 755.8624,548.6462 755.7704,548.7512 C755.0604,549.5562 753.7454,551.0502 751.3144,551.0502 L751.2254,551.0502 C749.0654,551.0162 747.8644,550.0372 747.1484,549.4542 C747.0164,549.3452 746.8344,549.1972 746.7724,549.1672 C744.7334,549.1302 743.6504,548.4982 742.9354,548.0792 C742.5934,547.8792 742.4914,547.8182 742.2794,547.8002 C742.1884,547.8952 742.0764,548.0262 741.9884,548.1322 C741.2774,548.9662 739.9594,550.5112 737.5014,550.5112 L737.4124,550.5112 C735.3214,550.4782 734.1384,549.5922 733.4304,549.0632 C733.0434,548.7732 733.0434,548.7732 732.8304,548.7712 C730.9604,548.7412 729.8954,548.1562 729.1894,547.7692 C728.7454,547.5262 728.6784,547.4882 728.2454,547.4822 C727.7064,547.4842 727.5424,547.5372 727.0894,547.7242 C726.4064,548.0022 725.3564,548.4052 723.6334,548.3992 C722.7614,548.3912 722.3604,548.4462 721.8374,548.5312 C721.2084,548.6342 720.4464,548.7562 719.0284,548.7392 C718.5454,548.7272 718.3944,548.7862 717.9434,548.9882 C717.2464,549.2982 716.1674,549.7012 714.4044,549.7432 C712.8774,549.7192 712.0434,549.4882 711.3724,549.3022 C710.8794,549.1662 710.5834,549.0832 709.8024,549.0712 C707.8524,549.0412 706.7574,548.3632 706.0304,547.9172 C705.5974,547.6462 705.5714,547.6322 705.2184,547.6262 C705.1654,547.6402 704.9844,547.7982 704.8504,547.9152 C704.1594,548.5202 702.8824,549.6382 700.6774,549.6382 L700.5784,549.6382 C698.6734,549.6072 697.5944,548.9842 696.8794,548.5712 C696.4364,548.3142 696.3884,548.2882 695.9904,548.2822 C695.1894,548.2532 694.8474,548.3432 694.3474,548.4502 C693.6874,548.5982 692.8614,548.7352 691.3774,548.7562 C690.6784,548.7372 690.3934,548.8202 689.9154,548.9582 C689.2534,549.1522 688.3804,549.4112 686.7594,549.3902 C685.6504,549.3732 685.0934,549.3772 684.5364,549.3872 C683.9394,549.3972 683.3414,549.3992 682.1474,549.3852 C679.6884,549.3482 678.4004,547.8372 677.7054,547.0262 C677.6134,546.9172 677.5264,546.8002 677.4264,546.6982 C676.7034,546.6362 676.3774,546.7622 675.9024,546.8602 C675.2514,546.9922 674.4444,547.1682 672.9684,547.1382 C672.5234,547.1432 672.4214,547.1752 671.9764,547.3922 C671.2664,547.7392 670.2414,548.2802 668.3464,548.2352 C667.1524,548.2172 666.5594,548.1942 665.9614,548.1712 C665.4064,548.1482 664.8484,548.1282 663.7404,548.1112 C662.1414,548.0862 661.2324,547.7822 660.5684,547.5602 C660.1034,547.4052 659.8474,547.3202 659.1434,547.3092 C658.6814,547.3182 658.5174,547.3542 658.0644,547.5582 C657.3674,547.8692 656.2604,548.3562 654.5234,548.3122 C652.3734,548.2802 651.1764,547.3102 650.4594,546.7332 C650.3264,546.6262 650.1464,546.4792 650.0834,546.4492 C648.4844,546.4262 647.1394,545.1052 647.161134,543.5062 C647.1864,541.9192 648.4124,540.6452 649.9924,540.6452 L650.0364,540.6452 C652.1874,540.6782 653.3854,541.6472 654.1024,542.2242 C654.2344,542.3322 654.4154,542.4792 654.4784,542.5102 C655.1184,542.5302 655.2434,542.4702 655.6954,542.2682 C656.3894,541.9572 657.4134,541.5082 659.2324,541.5142 C660.8334,541.5382 661.7424,541.8422 662.4064,542.0642 C662.8864,542.2242 663.1254,542.3062 663.8294,542.3152 C665.0064,542.3342 665.5994,542.3562 666.1864,542.3802 C666.7494,542.4022 667.3064,542.4232 668.4354,542.4392 C668.8784,542.4292 668.9884,542.4022 669.4334,542.1852 C670.1404,541.8382 671.1554,541.3492 673.0574,541.3422 C673.8874,541.3742 674.2304,541.2852 674.7394,541.1822 C675.3924,541.0502 676.2034,540.8782 677.6714,540.9042 C680.1314,540.9402 681.4204,542.4512 682.1144,543.2632 C682.2064,543.3722 682.2934,543.4882 682.3944,543.5912 C683.4054,543.6072 683.9334,543.5992 684.4594,543.5932 C685.0584,543.5812 685.6554,543.5752 686.8484,543.5952 C687.5744,543.6282 687.8284,543.5282 688.3064,543.3902 C688.9724,543.2002 689.8724,542.9812 691.4664,542.9612 C692.2594,542.9892 692.6044,542.9002 693.1024,542.7912 C693.7624,542.6452 694.5474,542.4292 696.0794,542.4872 C697.9834,542.5152 699.0644,543.1402 699.7794,543.5532 C700.2224,543.8092 700.2694,543.8362 700.6674,543.8422 C700.7994,543.7832 700.9104,543.6602 701.0334,543.5532 C701.7244,542.9492 703.0034,541.8302 705.2084,541.8302 L705.3064,541.8302 C707.2574,541.8602 708.3524,542.5382 709.0774,542.9852 C709.5144,543.2552 709.5384,543.2692 709.8934,543.2752 C711.4154,543.3002 712.2494,543.5302 712.9194,543.7172 C713.4134,543.8522 713.7094,543.9352 714.4924,543.9472 C714.9464,543.9322 715.1184,543.9022 715.5754,543.6982 C716.2724,543.3892 717.3434,542.9682 719.1164,542.9432 C719.9974,542.9532 720.3844,542.8962 720.9064,542.8112 C721.5334,542.7102 722.2714,542.5622 723.7244,542.6032 C724.2574,542.5912 724.4294,542.5492 724.8844,542.3642 C725.5654,542.0832 726.6314,541.6702 728.3344,541.6872 C730.2064,541.7172 731.2724,542.3022 731.9784,542.6882 C732.4214,542.9322 732.4884,542.9702 732.9194,542.9752 C735.0094,543.0082 736.1944,543.8922 736.9024,544.4232 C737.1244,544.5892 737.2184,544.6602 737.2994,544.6902 C737.3864,544.5952 737.4904,544.4742 737.5754,544.3742 C738.2954,543.5282 739.5584,541.9042 742.1504,541.9942 C744.0634,542.0242 745.1464,542.6572 745.8614,543.0752 C746.2994,543.3322 746.3444,543.3582 746.7354,543.3642 C748.8934,543.3982 750.0934,544.3772 750.8104,544.9602 C750.9214,545.0512 751.0664,545.1702 751.1484,545.2242 C751.2324,545.1342 751.3344,545.0162 751.4194,544.9212 C752.1284,544.1152 753.4444,542.6212 755.8754,542.6212 L755.9644,542.6212 C757.8754,542.6512 758.9584,543.2812 759.6734,543.6982 C760.1134,543.9552 760.1594,543.9812 760.5524,543.9872 C762.5314,544.0162 763.6804,544.7552 764.3664,545.1962 C764.8064,545.4772 764.8144,545.4812 765.1424,545.4862 C766.0364,545.5002 766.4424,545.4372 766.9474,545.3562 C767.5734,545.2572 768.3744,545.1212 769.7594,545.1522 C771.1834,545.1762 771.9684,545.3382 772.6004,545.4682 C773.0664,545.5642 773.4154,545.6362 774.1414,545.6582 C774.2324,545.5582 774.3454,545.4272 774.4364,545.3182 C775.1564,544.4702 776.4054,542.9212 779.0184,542.9272 C780.0104,542.9342 780.5244,542.8982 781.0284,542.8542 C781.6414,542.8002 782.3364,542.7472 783.6354,542.7612 C786.1234,542.8002 787.4154,544.3582 788.1104,545.1962 C788.1984,545.3042 788.3104,545.4392 788.3994,545.5362 C789.6044,545.5622 790.2684,545.6522 790.8574,545.7332 C791.3664,545.8042 791.8084,545.8642 792.7244,545.8812 C792.8344,545.7882 792.9264,545.6792 793.0284,545.5772 C793.7324,544.8642 795.0334,543.5472 797.3634,543.5472 L797.4564,543.5472 C799.3224,543.5772 800.3884,544.1532 801.0914,544.5342 C801.5324,544.7732 801.6134,544.8172 802.0584,544.8222 C803.2314,544.8402 803.8204,544.8582 804.4084,544.8772 C804.9744,544.8942 805.5404,544.9112 806.6724,544.9292 C808.1234,544.9512 808.9214,545.1282 809.5634,545.2712 C810.0644,545.3832 810.4244,545.4622 811.2844,545.4752 C812.7154,545.4982 813.5034,545.6602 814.1354,545.7922 C814.6514,545.8982 815.0214,545.9752 815.9044,545.9882 C816.6094,546.0242 816.8784,545.9232 817.3564,545.7812 C818.0264,545.5832 818.9224,545.3492 820.5404,545.3382 C822.1404,545.3622 823.4174,546.6812 823.393733,548.2802 C823.3684,549.8652 822.0764,551.1332 820.4974,551.1332 C820.4314,551.1372 820.3744,551.1332 820.3204,551.1322 C819.7014,551.1322 819.4434,551.2092 818.9954,551.3412 C818.3544,551.5292 817.4864,551.7862 816.0094,551.7862" id="Fill-22" fill="#A2D249"/><path d="M702.4107,593.2076 C700.6537,593.2076 699.6287,592.7636 698.9467,592.4666 C698.4977,592.2726 698.3457,592.2066 697.7947,592.2066 C697.1847,592.2066 696.9967,592.2806 696.5377,592.4576 C695.8357,592.7316 694.8757,593.1046 693.1777,593.1046 C691.9397,593.1046 691.3207,593.0696 690.7027,593.0316 C690.1687,593.0006 689.6327,592.9686 688.5647,592.9686 C686.3787,592.9686 685.1557,591.9706 684.4257,591.3766 C684.2937,591.2676 684.1107,591.1206 684.0467,591.0856 L684.0197,591.0856 C682.5787,591.0856 681.8577,590.9826 681.2247,590.8876 C680.6957,590.8106 680.2767,590.7496 679.3337,590.7496 C677.7967,590.7496 676.9527,590.5236 676.2737,590.3406 C675.7847,590.2086 675.4907,590.1296 674.7217,590.1296 C673.7887,590.1296 673.3757,590.1936 672.8527,590.2726 C672.2117,590.3736 671.4817,590.4846 670.1077,590.4846 C669.4987,590.4846 669.3097,590.5576 668.8517,590.7356 C668.1517,591.0066 667.1927,591.3796 665.4957,591.3796 C664.9837,591.3796 664.8637,591.4366 664.4147,591.6466 C663.7227,591.9686 662.6777,592.4576 660.8807,592.4576 C658.7827,592.4576 657.5827,591.5816 656.8657,591.0596 C656.4757,590.7746 656.4757,590.7746 656.2667,590.7746 C655.9827,590.7746 655.9827,590.7746 655.5577,591.0556 C654.8527,591.5196 653.6757,592.2946 651.6537,592.2946 C650.1647,592.2946 649.3447,592.1026 648.6857,591.9486 C648.1877,591.8316 647.8587,591.7536 647.0447,591.7536 C645.4447,591.7536 644.1467,590.4566 644.1467,588.8566 C644.1467,587.2556 645.4447,585.9576 647.0447,585.9576 C648.5307,585.9576 649.3517,586.1506 650.0107,586.3056 C650.5087,586.4216 650.8367,586.4996 651.6537,586.4996 C651.9377,586.4996 651.9377,586.4996 652.3667,586.2186 C653.0677,585.7546 654.2437,584.9796 656.2667,584.9796 C658.3637,584.9796 659.5637,585.8546 660.2807,586.3766 C660.6717,586.6626 660.6717,586.6626 660.8807,586.6626 C661.3927,586.6626 661.5137,586.6056 661.9617,586.3956 C662.6537,586.0736 663.6997,585.5846 665.4957,585.5846 C666.1067,585.5846 666.2957,585.5106 666.7537,585.3336 C667.4537,585.0606 668.4117,584.6886 670.1077,584.6886 C671.0387,584.6886 671.4517,584.6236 671.9727,584.5446 C672.6157,584.4456 673.3457,584.3336 674.7217,584.3336 C676.2567,584.3336 677.1007,584.5606 677.7787,584.7436 C678.2677,584.8746 678.5617,584.9546 679.3337,584.9546 C680.6997,584.9546 681.4247,585.0606 682.0617,585.1546 C682.5907,585.2316 683.0087,585.2916 683.9517,585.2916 C686.1377,585.2916 687.3587,586.2886 688.0897,586.8846 C688.2217,586.9946 688.4047,587.1416 688.4687,587.1746 L688.5207,587.1746 C689.8217,587.1746 690.4317,587.2106 691.0417,587.2476 C691.5757,587.2776 692.1097,587.3086 693.1777,587.3086 C693.7887,587.3086 693.9767,587.2356 694.4357,587.0566 C695.1387,586.7846 696.0967,586.4116 697.7947,586.4116 C699.5487,586.4116 700.5747,586.8566 701.2547,587.1506 C701.7057,587.3466 701.8577,587.4136 702.4107,587.4136 C702.5547,587.3846 702.7347,587.2336 702.8677,587.1236 C703.6007,586.5166 704.8257,585.4996 707.0237,585.4996 C709.1887,585.4996 710.4077,586.4696 711.1367,587.0466 C711.2697,587.1546 711.4557,587.3016 711.5177,587.3316 C711.5397,587.3336 711.5517,587.3366 711.5557,587.3406 C711.6687,587.2476 711.7607,587.1316 711.8627,587.0266 C712.5637,586.2996 713.8717,584.9476 716.2547,584.9476 C718.4867,584.9476 719.7187,586.0126 720.4567,586.6486 C720.5867,586.7616 720.7657,586.9186 720.8317,586.9546 C721.3487,586.9396 721.4547,586.8886 721.8987,586.6706 C722.5977,586.3316 723.6517,585.8186 725.4717,585.8186 C727.3897,585.8186 728.4817,586.4416 729.2067,586.8526 C729.6457,587.1016 729.6927,587.1276 730.0777,587.1276 C730.6927,587.1276 730.8817,587.0546 731.3427,586.8766 C732.0417,586.6056 733.0007,586.2356 734.6947,586.2356 C735.5037,586.2356 735.8307,586.1566 736.3227,586.0376 C736.9847,585.8786 737.8107,585.6786 739.3097,585.6786 C740.2107,585.6786 740.6087,585.6096 741.1147,585.5206 C741.7387,585.4116 742.5167,585.2756 743.9197,585.2756 C745.2127,585.2756 745.8567,585.3376 746.5027,585.3976 C747.0107,585.4476 747.5187,585.4966 748.5347,585.4966 C750.4987,585.4966 751.6527,586.1966 752.3437,586.6156 C752.7907,586.8826 752.8087,586.8936 753.1527,586.8936 C753.3897,586.8936 753.3897,586.8936 753.7907,586.6116 C754.5037,586.1076 755.6957,585.2676 757.7677,585.2676 C759.9637,585.2676 761.1877,586.2796 761.9227,586.8826 C762.0547,586.9926 762.2367,587.1426 762.3017,587.1766 C762.5087,587.1146 762.6177,586.9886 762.7407,586.8766 C763.4337,586.2436 764.7257,585.0626 767.0047,585.0626 C769.1497,585.0626 770.3647,586.0016 771.0897,586.5636 C771.2257,586.6696 771.4117,586.8146 771.4747,586.8426 C771.6447,586.8096 771.7567,586.6706 771.8817,586.5466 C772.5817,585.8426 773.8857,584.5346 776.2427,584.5346 C778.6247,584.5346 779.9317,585.8806 780.6337,586.6056 C780.7597,586.7336 780.8707,586.8766 781.0217,586.9786 C782.3057,586.9136 783.1157,587.0796 783.7637,587.2146 C784.2657,587.3186 784.6277,587.3936 785.4877,587.3936 C786.1097,587.3936 786.3027,587.3206 786.7677,587.1446 C787.4627,586.8806 788.4157,586.5206 790.1007,586.5206 C790.2257,586.4946 790.4057,586.3406 790.5377,586.2296 C791.2717,585.6076 792.5017,584.5656 794.7187,584.5656 C796.3777,584.5656 797.3187,584.9016 798.0057,585.1476 C798.4757,585.3146 798.6877,585.3906 799.3437,585.3906 C800.1877,585.3906 800.5467,585.3136 801.0407,585.2056 C801.6917,585.0646 802.5017,584.8886 803.9697,584.8886 C806.2577,584.8886 807.5517,586.0816 808.2457,586.7226 C808.3777,586.8426 808.5597,587.0086 808.6267,587.0506 C809.1247,587.0206 809.2607,586.9576 809.7117,586.7536 C810.3997,586.4396 811.4417,585.9656 813.2277,585.9656 C814.2487,585.9656 814.7607,585.9166 815.2697,585.8676 C815.9187,585.8076 816.5657,585.7456 817.8617,585.7456 C819.4617,585.7456 820.7597,587.0426 820.7597,588.6426 C820.7597,590.2436 819.4617,591.5406 817.8617,591.5406 C816.8417,591.5406 816.3297,591.5896 815.8207,591.6386 C815.1717,591.6996 814.5237,591.7616 813.2277,591.7616 C812.6977,591.7616 812.5617,591.8236 812.1117,592.0276 C811.4227,592.3426 810.3817,592.8166 808.5957,592.8166 C806.3067,592.8166 805.0127,591.6236 804.3177,590.9826 C804.1857,590.8616 804.0047,590.6956 803.9367,590.6546 C803.1237,590.6846 802.7657,590.7616 802.2707,590.8696 C801.6197,591.0106 800.8107,591.1856 799.3437,591.1856 C797.6857,591.1856 796.7447,590.8506 796.0587,590.6046 C795.5887,590.4386 795.3737,590.3616 794.7187,590.3616 C794.5947,590.3876 794.4137,590.5406 794.2807,590.6526 C793.5477,591.2746 792.3167,592.3166 790.1007,592.3166 C789.4777,592.3166 789.2837,592.3896 788.8187,592.5656 C788.1237,592.8296 787.1707,593.1896 785.4877,593.1896 C784.0327,593.1896 783.2307,593.0236 782.5857,592.8896 C782.0847,592.7866 781.7227,592.7096 780.8637,592.7096 C778.4827,592.7096 777.1777,591.3636 776.4757,590.6406 C776.3927,590.5556 776.3167,590.4666 776.2317,590.3856 C776.1467,590.4656 776.0697,590.5536 775.9867,590.6346 C775.2867,591.3386 773.9827,592.6486 771.6247,592.6486 C769.4777,592.6486 768.2637,591.7066 767.5387,591.1446 C767.4027,591.0396 767.2157,590.8956 767.1537,590.8676 L766.9437,590.8616 C766.8817,590.9156 766.7717,591.0426 766.6497,591.1546 C765.9577,591.7886 764.6647,592.9686 762.3867,592.9686 C760.1897,592.9686 758.9657,591.9576 758.2317,591.3536 C758.1007,591.2446 757.9167,591.0936 757.8517,591.0596 C757.5317,591.0636 757.5317,591.0636 757.1307,591.3466 C756.4167,591.8506 755.2247,592.6896 753.1527,592.6896 C751.1887,592.6896 750.0347,591.9896 749.3447,591.5716 C748.8967,591.3026 748.8797,591.2916 748.5347,591.2916 C747.2417,591.2916 746.5977,591.2296 745.9517,591.1686 C745.4437,591.1206 744.9347,591.0716 743.9197,591.0716 C743.0177,591.0716 742.6197,591.1406 742.1147,591.2296 C741.4897,591.3386 740.7127,591.4746 739.3097,591.4746 C738.4997,591.4746 738.1737,591.5536 737.6817,591.6726 C737.0187,591.8316 736.1917,592.0316 734.6947,592.0316 C734.0817,592.0316 733.8917,592.1046 733.4327,592.2826 C732.7317,592.5536 731.7737,592.9236 730.0777,592.9236 C728.1587,592.9236 727.0667,592.3006 726.3427,591.8896 C725.9027,591.6406 725.8557,591.6146 725.4717,591.6146 C724.9857,591.6146 724.8807,591.6646 724.4347,591.8816 C723.7367,592.2216 722.6827,592.7356 720.8637,592.7356 C718.6337,592.7356 717.4017,591.6686 716.6657,591.0336 C716.5527,590.9366 716.4057,590.8086 716.3247,590.7496 C716.2197,590.8426 716.1287,590.9526 716.0317,591.0516 C715.3307,591.7786 714.0227,593.1306 711.6407,593.1306 C709.4747,593.1306 708.2577,592.1636 707.5287,591.5836 C707.3947,591.4766 707.2107,591.3316 707.1457,591.2986 L706.9137,591.3026 C706.8827,591.3246 706.7007,591.4746 706.5687,591.5836 C705.8347,592.1916 704.6107,593.2076 702.4107,593.2076" id="Fill-24" fill="#A2D249"/><path d="M694.1207,625.13 C694.0497,625.13 693.9767,625.126 693.9037,625.122 C692.3087,625 691.1117,623.649 691.2327,622.053 C691.4007,619.848 692.5207,618.696 693.1887,618.008 C693.3117,617.884 693.4787,617.71 693.5187,617.648 C693.5097,617.527 693.3567,617.333 693.2437,617.192 C692.6547,616.447 691.5587,615.063 691.7307,612.775 C691.8817,610.778 692.7117,609.667 693.2077,609.003 C693.5267,608.577 693.5267,608.577 693.5497,608.262 C693.7117,606.116 694.7477,604.974 695.3637,604.29 C695.4807,604.162 695.6417,603.986 695.6737,603.927 C695.6797,603.897 695.6867,603.881 695.6947,603.877 C695.6037,603.759 695.4927,603.654 695.3917,603.545 C694.6977,602.785 693.4057,601.37 693.5877,598.967 C693.7217,597.186 694.2757,596.182 694.6417,595.518 C694.8797,595.086 694.9507,594.955 694.9907,594.431 C694.9767,594.337 694.8347,594.147 694.7277,594.005 C694.1797,593.273 693.1547,591.906 693.3227,589.669 C693.5267,586.974 695.5737,585.812 696.6737,585.187 C696.7177,585.16 696.7667,585.132 696.8167,585.104 C696.8127,585.098 696.8077,585.092 696.8027,585.087 C696.1017,584.326 694.7967,582.911 694.9787,580.5 C695.0697,579.312 695.1287,578.72 695.1867,578.125 C695.2417,577.567 695.2987,577.008 695.3817,575.89 C695.5357,573.841 696.4337,572.718 696.9717,572.046 C697.2177,571.741 697.2717,571.671 697.2947,571.535 C697.2097,571.441 697.0887,571.315 696.9927,571.215 C696.2527,570.45 694.8797,569.027 695.0617,566.579 C695.2567,563.992 697.0847,562.806 698.0657,562.17 C698.1867,562.091 698.3457,561.987 698.4677,561.902 C698.6147,560.421 698.9977,559.572 699.2807,558.944 C699.4447,558.578 699.5377,558.372 699.5927,557.965 C699.4787,557.861 699.3337,557.738 699.2227,557.644 C698.2987,556.865 696.5757,555.414 696.7737,552.782 C696.8777,551.422 697.0337,550.709 697.1737,550.079 C697.2907,549.555 697.3837,549.141 697.4527,548.196 C697.4907,547.713 697.4447,547.604 697.2607,547.142 C696.9717,546.417 696.5337,545.322 696.6697,543.502 C696.8307,541.374 697.8377,540.236 698.4407,539.556 C698.5487,539.433 698.7147,539.246 698.7427,539.188 C698.8977,537.333 699.3337,536.406 699.6547,535.73 C699.8657,535.278 699.9547,535.092 699.9997,534.473 C700.1227,532.875 700.5237,531.971 700.9597,531.112 C701.1807,530.677 701.2637,530.513 701.3077,529.94 C701.2587,529.813 701.1417,529.694 701.0397,529.564 C700.4597,528.824 699.3807,527.449 699.5507,525.176 C699.6937,523.291 700.3617,522.255 700.8037,521.568 C701.0747,521.148 701.1187,521.083 701.1487,520.665 C701.1277,520.474 700.9957,520.277 700.8997,520.137 C700.3757,519.364 699.4957,518.074 699.6597,515.91 C699.7147,515.19 699.6547,514.92 699.5447,514.432 C699.3917,513.756 699.1847,512.829 699.3037,511.247 C699.5077,508.581 701.5277,507.419 702.6717,506.788 C701.7387,505.988 700.1937,504.553 700.3827,502.048 C700.4407,501.271 700.3867,500.967 700.2927,500.463 C700.1657,499.775 700.0077,498.916 700.1227,497.386 C700.3057,494.954 701.8497,493.754 702.6807,493.109 C702.7917,493.022 702.9317,492.914 703.0257,492.831 C703.0807,492.017 703.0447,491.624 702.9997,491.136 C702.9407,490.507 702.8687,489.725 702.9737,488.328 C703.0447,487.395 703.0127,486.976 702.9717,486.447 C702.9227,485.796 702.8657,485.061 702.9677,483.687 C703.0447,482.674 703.0337,482.164 703.0217,481.653 C703.0077,481.002 702.9937,480.35 703.0907,479.058 C703.2637,476.754 704.5877,475.552 705.2977,474.906 C705.4237,474.794 705.5607,474.693 705.6657,474.552 C705.6047,474.469 705.4677,474.275 705.3667,474.135 C704.8117,473.358 703.8867,472.056 704.0507,469.859 C704.2147,467.715 705.2447,466.575 705.8597,465.895 C705.9757,465.766 706.1357,465.589 706.1667,465.528 C706.2207,464.953 706.1897,464.881 705.9837,464.417 C705.6537,463.674 705.1577,462.552 705.2997,460.67 C705.2897,460.619 705.1407,460.427 705.0307,460.287 C704.4557,459.548 703.3847,458.173 703.5547,455.906 C703.6977,454.011 704.3747,452.971 704.8237,452.282 C705.1027,451.857 705.1397,451.802 705.1687,451.389 C705.2487,450.336 705.2537,449.806 705.2577,449.276 C705.2637,448.649 705.2667,448.021 705.3617,446.774 C705.4657,445.419 705.6197,444.71 705.7557,444.083 C705.8707,443.555 705.9617,443.14 706.0327,442.188 C706.1917,440.082 707.1707,438.948 707.7557,438.271 C708.0707,437.904 708.0707,437.904 708.0857,437.703 C708.1827,436.435 708.2817,435.807 708.3807,435.179 C708.4617,434.661 708.5427,434.145 708.6197,433.106 C708.6647,432.503 708.6097,432.324 708.4617,431.845 C708.2347,431.122 707.9257,430.13 708.0537,428.428 C708.1137,427.638 708.0577,427.314 707.9707,426.821 C707.8497,426.138 707.7007,425.289 707.8137,423.776 C707.9377,422.144 708.3257,421.24 708.6057,420.58 C708.8007,420.127 708.8987,419.901 708.9477,419.23 C708.9277,419.026 708.7967,418.829 708.7007,418.686 C708.1867,417.918 707.3287,416.635 707.4897,414.486 C707.6077,412.89 708.9967,411.681 710.5977,411.813 C712.1927,411.934 713.3897,413.324 713.2697,414.92 C713.2607,415.026 713.2697,415.069 713.2697,415.069 C713.2907,415.124 713.4217,415.32 713.5167,415.464 C714.0307,416.232 714.8907,417.515 714.7277,419.663 C714.6037,421.295 714.2177,422.2 713.9357,422.86 C713.7417,423.314 713.6437,423.54 713.5947,424.212 C713.5337,425 713.5907,425.325 713.6777,425.818 C713.7987,426.5 713.9477,427.349 713.8347,428.862 C713.7887,429.464 713.8437,429.644 713.9927,430.122 C714.2197,430.845 714.5287,431.835 714.3997,433.539 C714.3047,434.813 714.2037,435.443 714.1057,436.076 C714.0247,436.59 713.9437,437.105 713.8657,438.141 C713.7077,440.244 712.7287,441.378 712.1437,442.056 C711.8287,442.421 711.8287,442.421 711.8137,442.621 C711.7117,443.978 711.5557,444.689 711.4197,445.318 C711.3047,445.844 711.2137,446.261 711.1417,447.211 C711.0627,448.264 711.0577,448.794 711.0537,449.324 C711.0477,449.95 711.0437,450.579 710.9497,451.826 C710.8047,453.722 710.1267,454.762 709.6807,455.448 C709.4007,455.875 709.3647,455.93 709.3347,456.341 C709.3447,456.394 709.4927,456.586 709.6017,456.726 C710.1787,457.465 711.2497,458.841 711.0797,461.109 C711.0457,461.536 711.0777,461.609 711.2837,462.07 C711.6117,462.814 712.1097,463.937 711.9687,465.816 C711.8067,467.958 710.7757,469.1 710.1587,469.781 C710.0427,469.909 709.8837,470.085 709.8507,470.145 L709.8287,470.403 C709.8487,470.438 709.9857,470.632 710.0877,470.772 C710.6407,471.549 711.5657,472.851 711.4017,475.046 C711.2287,477.352 709.9037,478.554 709.1927,479.199 C709.0687,479.312 708.9297,479.414 708.8267,479.554 C708.7937,480.506 708.8047,481.016 708.8157,481.526 C708.8307,482.178 708.8447,482.828 708.7477,484.121 C708.6767,485.055 708.7087,485.474 708.7497,486.002 C708.7987,486.652 708.8547,487.389 708.7537,488.762 C708.6837,489.673 708.7217,490.081 708.7697,490.598 C708.8287,491.226 708.9007,492.009 708.7967,493.405 C708.6097,495.841 707.0667,497.04 706.2367,497.686 C706.1217,497.775 706.0007,497.856 705.8927,497.952 C705.8497,498.641 705.9047,498.937 705.9917,499.41 C706.1097,500.048 706.2537,500.832 706.1837,502.159 C706.2977,502.265 706.4437,502.391 706.5577,502.487 C707.4687,503.267 709.1647,504.715 708.9667,507.336 C708.7617,510.053 706.6617,511.209 705.5307,511.829 C705.3917,511.907 705.2107,512.007 705.0627,512.094 C705.0577,512.529 705.1137,512.776 705.1987,513.159 C705.3517,513.835 705.5587,514.762 705.4407,516.346 C705.4617,516.537 705.5937,516.733 705.6897,516.874 C706.2147,517.646 707.0937,518.937 706.9297,521.101 C706.7857,522.985 706.1177,524.023 705.6767,524.708 C705.4047,525.13 705.3617,525.194 705.3317,525.615 C705.3807,525.737 705.4977,525.857 705.5997,525.986 C706.1787,526.727 707.2577,528.102 707.0877,530.375 C706.9677,531.971 706.5647,532.877 706.1277,533.737 C705.9067,534.173 705.8237,534.337 705.7797,534.91 C705.6517,536.595 705.2167,537.522 704.8947,538.198 C704.6837,538.65 704.5957,538.836 704.5507,539.455 C704.3887,541.581 703.3807,542.719 702.7787,543.399 C702.6717,543.521 702.5057,543.708 702.4767,543.766 C702.4127,544.417 702.4577,544.526 702.6417,544.988 C702.9317,545.713 703.3687,546.808 703.2327,548.63 C703.1297,549.99 702.9737,550.703 702.8337,551.333 C702.7307,551.792 702.6477,552.167 702.5807,552.888 C702.6957,552.993 702.8447,553.118 702.9577,553.212 C703.8827,553.993 705.6047,555.444 705.4047,558.076 C705.2787,559.736 704.8667,560.653 704.5647,561.321 C704.3637,561.774 704.2687,561.98 704.2227,562.625 C704.0277,565.211 702.2017,566.396 701.2207,567.032 C701.1807,567.059 701.1357,567.087 701.0907,567.116 C701.1147,567.142 701.1377,567.164 701.1597,567.187 C701.8977,567.952 703.2727,569.375 703.0887,571.825 C702.9337,573.873 702.0357,574.995 701.4977,575.667 C701.1807,576.063 701.1807,576.063 701.1617,576.323 C701.0707,577.51 701.0137,578.105 700.9547,578.696 C700.9017,579.238 700.8477,579.781 700.7667,580.836 C700.8557,580.951 700.9637,581.051 701.0637,581.159 C701.7637,581.917 703.0667,583.332 702.8867,585.741 C702.6827,588.438 700.6357,589.6 699.5357,590.224 C699.4527,590.272 699.3537,590.327 699.2587,590.384 C699.2947,590.436 699.3317,590.484 699.3657,590.529 C699.9147,591.262 700.9387,592.627 700.7707,594.865 C700.6377,596.65 700.0827,597.653 699.7167,598.318 C699.4917,598.723 699.4167,598.862 699.3757,599.31 C699.4637,599.427 699.5717,599.526 699.6697,599.634 C700.3637,600.395 701.6557,601.81 701.4747,604.213 C701.3127,606.359 700.2767,607.501 699.6597,608.185 C699.5437,608.313 699.3827,608.488 699.3507,608.549 C699.1777,610.695 698.3477,611.809 697.8507,612.473 C697.5337,612.896 697.5337,612.896 697.5117,613.21 C697.5187,613.254 697.6737,613.448 697.7867,613.592 C698.3757,614.335 699.4717,615.716 699.2997,618.004 C699.1317,620.212 698.0117,621.362 697.3437,622.051 C697.2207,622.176 697.0527,622.349 697.0137,622.411 C696.8977,623.936 695.6247,625.13 694.1207,625.13" id="Fill-26" fill="#A2D249"/><polygon id="Fill-28" fill="#AFDCFD" points="660.7194 364.2208 827.8474 368.6108 849.9994 137.3348 676.5434 137.3348"/><mask id="uiscreen-3-mask-4" fill="#ffffff"><use xlink:href="#uiscreen-3-path-3" fill="#ffffff"/></mask><g id="Clip-31"/><polygon id="Fill-30" fill="#F8FBF8" mask="url(#uiscreen-3-mask-4)" points="78.653 526.221 111.203 526.221 111.203 492.386 78.653 492.386"/><polygon id="Fill-32" fill="#F8FBF8" mask="url(#uiscreen-3-mask-4)" points="547.629 543.138 580.179 543.138 580.179 509.303 547.629 509.303"/><polygon id="Fill-33" fill="#F8FBF8" mask="url(#uiscreen-3-mask-4)" points="164.311 213.142 196.861 213.142 196.861 179.307 164.311 179.307"/><polygon id="Fill-34" fill="#F8FBF8" mask="url(#uiscreen-3-mask-4)" points="580.178 216.14 612.728 216.14 612.728 182.305 580.178 182.305"/><path d="M35.0055,301.3555 C35.6075,282.9195 64.2385,281.4005 63.9875,301.7315 C63.7735,319.1275 34.4755,317.5635 35.0055,301.3555 L35.0055,301.3555 Z M266.8665,258.8225 L61.3525,254.6815 C61.3525,254.6815 -0.0005,250.9125 -0.0005,302.8605 C-0.0005,352.5445 55.3305,350.6635 55.3305,350.6635 L260.8445,358.5675 L322.9495,311.1415 L266.8665,258.8225 Z" id="Fill-35" fill="#A2D249" mask="url(#uiscreen-3-mask-4)"/><path d="M470.9644,237.126 C470.9644,237.126 532.7334,164.608 548.7264,102.215 C584.5274,-37.458 341.4454,-34.761 393.4444,115.064 C408.6994,159.018 470.9644,237.126 470.9644,237.126" id="Fill-36" fill="#FE5C4F" mask="url(#uiscreen-3-mask-4)"/><path d="M495.1422,75.4474 C495.1422,89.7584 483.5402,101.3584 469.2302,101.3584 C454.9192,101.3584 443.3192,89.7584 443.3192,75.4474 C443.3192,61.1364 454.9192,49.5364 469.2302,49.5364 C483.5402,49.5364 495.1422,61.1364 495.1422,75.4474" id="Fill-37" fill="#B02D1C" mask="url(#uiscreen-3-mask-4)"/><path d="M748.7448,284.4532 L736.5268,454.0972 C736.5268,454.0972 731.8278,484.1722 768.0128,486.0522 C804.1958,487.9312 982.2988,490.7512 982.2988,490.7512 C982.2988,490.7512 1016.6028,494.0402 1019.8928,459.7352 C1023.1818,425.4312 1030.2308,293.8512 1030.2308,293.8512 C1030.2308,293.8512 1033.9908,263.7762 1006.2658,261.8962 C978.5398,260.0162 781.6408,261.8962 781.6408,261.8962 C781.6408,261.8962 750.4988,260.1092 748.7448,284.4532" id="Fill-38" fill="#F8FBF8" mask="url(#uiscreen-3-mask-4)"/><path d="M775.6998,330.9346 C773.7308,400.1516 876.7148,396.0586 877.8038,334.2526 C878.9428,269.6796 777.7228,259.7896 775.6998,330.9346" id="Fill-39" fill="#00DEB8" mask="url(#uiscreen-3-mask-4)"/><path d="M826.7242,299.5577 C821.6642,299.3897 812.3762,301.3547 808.5072,310.1897 C802.6372,323.5947 812.7912,329.2767 812.7912,329.2767 C812.7912,329.2767 820.0902,333.6537 809.1972,338.1227 C801.1542,341.4227 795.5122,344.8497 796.3422,354.0657 C797.1712,363.2807 807.3082,372.3117 827.6732,371.8507 C848.0392,371.3897 858.6042,363.7637 858.7532,354.2277 C858.8672,346.9697 858.8682,342.6847 842.0952,337.0167 C842.0952,337.0167 835.1302,334.2467 840.2982,330.0137 C848.4532,323.3317 848.1772,300.2667 826.7242,299.5577" id="Fill-40" fill="#4D33A2" mask="url(#uiscreen-3-mask-4)"/><polygon id="Fill-41" fill="#D5E1D5" mask="url(#uiscreen-3-mask-4)" points="774.1207 400.1046 774.1207 411.8526 998.2757 414.2026 998.2757 400.1046"/><polygon id="Fill-42" fill="#D5E1D5" mask="url(#uiscreen-3-mask-4)" points="774.1207 423.1983 774.1207 434.3593 998.2757 439.2763 998.2757 427.7803"/><polygon id="Fill-43" fill="#D5E1D5" mask="url(#uiscreen-3-mask-4)" points="774.1207 448.2725 774.1207 459.4325 998.2757 464.3495 998.2757 452.8535"/><path d="M900.8844,356.9063 C900.8844,356.9063 883.6624,356.5533 883.3704,368.5373 C883.0774,380.5193 894.1784,381.5773 902.0644,381.5773 L985.8964,381.5773 C985.8964,381.5773 998.4564,383.6913 999.3324,372.0613 C1000.2094,360.4303 992.3224,358.7323 986.7734,358.5243 C981.2234,358.3153 900.8844,356.9063 900.8844,356.9063" id="Fill-44" fill="#FEF864" mask="url(#uiscreen-3-mask-4)"/></g></g></g><g transform="translate(198.000000, 174.000000) scale(1 1)" id="Master/Character/Standing"><g id="Master/Character/Standing" stroke="none" stroke-width="1" fill="none" fill-rule="evenodd"><g id="Standing/Lower Body" transform="translate(14.000000, 442.000000) scale(1 1)"><g id="Standing/Lower Body/Sstanding" stroke="none" stroke-width="1" fill="none" fill-rule="evenodd"><g id="Group-332" transform="translate(236.000000, -1.000000)"><g id="Group-126" transform="translate(0.000000, 0.142000)"><path d="M72.0978,172.4369 L35.7948,172.4369 C9.5208,172.4369 8.5178,190.2879 8.5178,190.2879 L10.6818,271.3909 C10.6818,271.3909 12.9308,287.5639 39.4058,287.5639 L75.7078,287.5639 C102.1828,287.5639 103.8888,268.5599 103.8888,268.5599 L103.928158,189.2869 C103.928158,189.2869 104.3898,172.4369 72.0978,172.4369" id="Fill-98" fill="#d46b55"/><polygon id="Fill-100" fill="#F8FBF8" points="9.7379 236.017 103.9279 236.017 103.8879 268.56 10.3719 267.807"/><path d="M64.5915,242.2348 L9.7375,242.2348 L10.1225,250.2568 C10.1225,250.2568 55.2505,250.4588 63.6745,250.2568 C72.0975,250.0568 103.9285,250.3468 103.9285,250.3468 L103.9285,242.3848 C103.9285,242.3848 67.9165,242.2348 64.5915,242.2348" id="Fill-102" fill="#FE5C4F"/><path d="M126.7531,268.56 L103.8891,267.689 L61.9691,267.689 C61.9691,267.689 16.9911,267.306 10.3721,267.807 C8.3621,267.959 7.3131,268.61 6.9201,271.391 C6.9201,271.391 6.2101,285.107 8.7681,296.539 L46.8391,296.539 L122.4711,296.539 L162.5351,296.539 C162.5431,296.339 162.5551,296.144 162.5551,295.937 C162.5551,284.806 139.5391,273.975 126.7531,268.56" id="Fill-104" fill="#FE5C4F"/><path d="M122.4709,296.5385 L46.8389,296.5385 L8.7679,296.5385 C8.7679,296.5385 5.8129,302.8815 6.9899,307.2315 L47.0539,307.2315 L111.2079,307.2315 L151.2729,307.2315 C151.2729,307.2315 162.1319,307.0665 162.5349,296.5385 L122.4709,296.5385 Z" id="Fill-106" fill="#D5E1D5"/><path d="M110.0558,249.7562 C110.0558,249.7562 101.7828,254.8702 102.8348,264.6492 C103.8888,274.4262 116.5408,278.9392 123.8948,273.3732 C141.8798,259.7632 123.4438,242.2352 110.0558,249.7562" id="Fill-108" fill="#FF9786"/><path d="M126.151,281.8949 C125.678,281.8949 125.205,281.7199 124.836,281.3679 C124.076,280.6409 124.049,279.4369 124.776,278.6769 C128.102,275.1999 135.7,268.4719 136.022,268.1869 C136.809,267.4909 138.012,267.5639 138.708,268.3519 C139.405,269.1389 139.331,270.3409 138.544,271.0379 C138.466,271.1069 130.743,277.9449 127.526,281.3069 C127.152,281.6989 126.652,281.8949 126.151,281.8949" id="Fill-110" fill="#000"/><path d="M133.6945,284.9115 C133.2225,284.9115 132.7485,284.7355 132.3795,284.3835 C131.6205,283.6565 131.5925,282.4515 132.3195,281.6925 C135.6465,278.2155 143.2435,271.4885 143.5655,271.2035 C144.3525,270.5075 145.5555,270.5805 146.2525,271.3675 C146.9485,272.1545 146.8745,273.3575 146.0875,274.0545 C146.0095,274.1235 138.2865,280.9615 135.0705,284.3235 C134.6965,284.7145 134.1955,284.9115 133.6945,284.9115" id="Fill-112" fill="#000"/><path d="M140.4128,288.0736 C139.9398,288.0736 139.4658,287.8986 139.0978,287.5466 C138.3378,286.8196 138.3108,285.6146 139.0378,284.8546 C142.3638,281.3786 149.9618,274.6506 150.2838,274.3656 C151.0708,273.6696 152.2738,273.7436 152.9698,274.5306 C153.6658,275.3176 153.5928,276.5206 152.8058,277.2176 C152.7278,277.2856 145.0048,284.1246 141.7878,287.4856 C141.4138,287.8766 140.9138,288.0736 140.4128,288.0736" id="Fill-114" fill="#000"/><path d="M103.9274,300.5482 C103.4944,300.5482 103.0594,300.4012 102.7024,300.1012 C101.8984,299.4232 101.7954,298.2232 102.4724,297.4192 C102.6664,297.1852 107.2884,291.4682 103.1174,285.2662 C98.6294,278.5912 100.8634,272.4132 100.9604,272.1532 C101.3284,271.1692 102.4234,270.6692 103.4104,271.0382 C104.3904,271.4062 104.8894,272.4962 104.5294,273.4782 C104.4524,273.6912 102.9274,278.1612 106.2764,283.1422 C110.9104,290.0332 107.7194,297.0982 105.3844,299.8702 C105.0074,300.3182 104.4694,300.5482 103.9274,300.5482" id="Fill-116" fill="#000"/><path d="M106.7956,23.5502 L106.7956,23.5502 C106.7956,10.8472 96.4976,0.5492 83.7946,0.5492 L26.5036,0.5492 C13.8006,0.5492 3.5026,10.8472 3.5026,23.5502 C3.5026,23.5502 4.4566,174.5932 4.4566,184.7952 C4.4566,184.7952 4.1056,190.2872 8.5176,190.2872 L103.8376,190.2872 C103.8376,190.2872 109.7546,190.2872 109.7546,182.7662 C109.7546,175.3452 106.7956,23.5502 106.7956,23.5502" id="Fill-118" fill="#70A0E6"/><path d="M4.6588,34.9222 L27.6088,34.9222 C29.7318,34.9222 31.4508,36.6402 31.4458109,38.7632 C31.4258,47.1692 30.0098,66.4942 17.4608,67.0342 C5.0078,67.5692 1.6968,47.9422 0.8388,39.1172 C0.6198,36.8652 2.3968,34.9222 4.6588,34.9222" id="Fill-120" fill="#3164CF"/><path d="M66.0016,34.9222 L88.9516,34.9222 C91.0746,34.9222 92.7936,36.6402 92.7886109,38.7632 C92.7686,47.1692 91.3526,66.4942 78.8036,67.0342 C66.3506,67.5692 63.0396,47.9422 62.1816,39.1172 C61.9626,36.8652 63.7396,34.9222 66.0016,34.9222" id="Fill-122" fill="#3164CF"/><path d="M44.4865,306.7152 C43.4355,306.7152 42.5835,305.8632 42.5835,304.8122 C42.5835,304.1522 42.6145,303.8222 42.6445,303.4922 C42.6675,303.2502 42.6905,303.0092 42.6905,302.5262 C42.6905,301.9622 42.6875,301.6812 42.6845,301.4002 C42.6815,301.1092 42.6785,300.8182 42.6785,300.2362 C42.6785,299.7852 42.6535,299.5852 42.6215,299.3322 C42.5815,299.0242 42.5325,298.6402 42.5325,297.9452 C42.5325,297.1642 42.6485,296.7042 42.7785,296.2652 C42.8445,296.0392 42.8695,295.9552 42.8695,295.6562 C42.8695,294.9042 42.9485,294.4882 43.0125,294.1542 C43.0605,293.9082 43.0885,293.7602 43.0885,293.3692 C43.0885,293.1642 43.0795,293.1422 42.9965,292.9332 C42.8115,292.4712 42.6315,291.9482 42.6315,291.0822 L42.6285,288.7952 C42.6285,287.7992 42.9085,287.2012 43.0765,286.8432 C43.1645,286.6552 43.1645,286.6552 43.1645,286.5072 C43.1645,285.7522 43.2455,285.3352 43.3105,285.0002 C43.3585,284.7562 43.3865,284.6082 43.3865,284.2192 C43.3865,283.7002 43.3725,283.4412 43.3575,283.1812 C43.3405,282.8682 43.3225,282.5552 43.3225,281.9292 C43.3195,281.9092 43.2875,281.8662 43.2585,281.8212 C43.0205,281.4562 42.5785,280.7762 42.5785,279.6392 C42.5785,278.4672 43.0625,277.7762 43.3225,277.4032 C43.3385,277.3812 43.3555,277.3582 43.3715,277.3352 C43.3555,277.2562 43.3295,277.2182 43.3065,277.1782 C43.0795,276.7962 42.6995,276.1572 42.6995,275.0632 C42.6995,274.2652 42.8255,273.7962 42.9665,273.3482 C43.0355,273.1282 43.0585,273.0542 43.0585,272.7742 C43.0585,272.1052 43.0955,271.7492 43.1275,271.4362 C43.1515,271.1972 43.1755,270.9602 43.1755,270.4852 C43.1755,270.2032 43.1535,270.1282 43.0835,269.9072 C42.9435,269.4602 42.8175,268.9912 42.8175,268.1942 C42.8175,267.4042 42.9235,266.9512 42.9995,266.6202 C43.0535,266.3872 43.0835,266.2592 43.0835,265.9042 C43.0835,265.1162 43.1875,264.6632 43.2625,264.3342 C43.3155,264.1062 43.3445,263.9792 43.3455,263.6422 C43.3275,263.6142 43.3075,263.5882 43.2895,263.5622 C43.0285,263.1912 42.5445,262.4982 42.5445,261.3262 C42.5445,260.6232 42.5985,260.2342 42.6415,259.9212 C42.6765,259.6642 42.7025,259.4792 42.7025,259.0362 C42.7025,258.5912 42.6775,258.4032 42.6425,258.1452 C42.6005,257.8332 42.5485,257.4452 42.5485,256.7452 C42.5485,255.9702 42.6605,255.5142 42.7855,255.0772 C42.8485,254.8542 42.8755,254.7612 42.8755,254.4552 C42.8755,253.8082 42.9015,253.4842 42.9265,253.1592 C42.9465,252.9112 42.9665,252.6632 42.9665,252.1662 C42.9665,251.9822 42.9635,251.9732 42.8755,251.7662 C42.6745,251.2952 42.4795,250.7622 42.4795,249.8752 C42.4795,248.7672 42.8735,248.1222 43.1085,247.7372 C43.1365,247.6922 43.1675,247.6482 43.1915,247.5962 C43.1795,247.2202 43.1505,247.0882 43.0975,246.8512 C43.0255,246.5232 42.9255,246.0752 42.9255,245.2942 C42.9255,244.6982 42.9335,244.4002 42.9415,244.1022 C42.9475,243.8272 42.9545,243.5532 42.9545,243.0042 C42.9545,242.2292 43.0495,241.7822 43.1205,241.4572 C43.1715,241.2242 43.2005,241.0822 43.2005,240.7122 C43.2005,240.6422 43.1945,240.6132 43.1945,240.6132 C43.1765,240.5692 43.1475,240.5242 43.1215,240.4762 C42.9195,240.1032 42.5815,239.4802 42.5815,238.4252 C42.5815,237.5112 42.7815,236.9742 42.9135,236.6182 C42.9925,236.4062 43.0075,236.3682 43.0075,236.1392 C43.0075,235.9802 43.0075,235.9802 42.9175,235.7842 C42.6995,235.3052 42.4865,234.7612 42.4865,233.8522 C42.4865,232.7302 42.8955,232.0812 43.1395,231.6942 C43.1685,231.6482 43.1995,231.6052 43.2245,231.5542 C43.2075,231.1632 43.1775,231.0042 43.1335,230.7632 C43.0715,230.4312 42.9955,230.0182 42.9955,229.2712 C42.9955,228.6052 43.0305,228.2512 43.0625,227.9392 C43.0865,227.6992 43.1095,227.4612 43.1095,226.9832 C43.1095,226.3552 43.1285,226.0402 43.1465,225.7262 C43.1615,225.4682 43.1765,225.2102 43.1765,224.6942 C43.1765,224.1032 43.1815,223.8082 43.1875,223.5132 C43.1925,223.2352 43.1975,222.9572 43.1975,222.4012 C43.1875,222.3502 43.1565,222.3062 43.1285,222.2612 C42.8875,221.8742 42.4855,221.2272 42.4855,220.1112 C42.4855,219.2862 42.6115,218.8162 42.7045,218.4712 C42.7655,218.2442 42.7935,218.1402 42.7935,217.8192 C42.7935,217.2752 42.7845,217.0032 42.7765,216.7322 C42.7665,216.4312 42.7575,216.1292 42.7575,215.5272 C42.7575,214.7052 42.8825,214.2362 42.9735,213.8922 C43.0335,213.6632 43.0615,213.5592 43.0615,213.2342 C43.0615,213.0682 43.0615,213.0682 42.9705,212.8662 C42.7575,212.3882 42.5485,211.8462 42.5485,210.9422 C42.5485,210.0682 42.7335,209.5402 42.9235,209.0752 C43.0075,208.8692 43.0165,208.8482 43.0165,208.6492 C43.0165,208.2922 42.9865,208.1632 42.9325,207.9312 C42.8555,207.5992 42.7505,207.1462 42.7505,206.3542 C42.7505,205.7192 42.7715,205.4022 42.7915,205.0852 C42.8085,204.8302 42.8255,204.5752 42.8255,204.0652 C42.8255,203.1812 43.0005,202.6582 43.1165,202.3132 C43.1885,202.0992 43.2105,202.0342 43.2105,201.7732 C43.2105,201.4972 43.1865,201.4242 43.1165,201.2082 C43.0075,200.8662 42.8405,200.3502 42.8405,199.4782 C42.8405,198.7532 42.9045,198.3522 42.9565,198.0292 C42.9955,197.7832 43.0245,197.6052 43.0245,197.1822 C43.0245,196.3942 43.1435,195.9312 43.2765,195.4872 C43.3435,195.2652 43.3685,195.1812 43.3685,194.8862 C43.3685,194.7372 43.3685,194.7372 43.2785,194.5492 C43.1095,194.1902 42.8255,193.5882 42.8255,192.5872 C42.8255,192.1742 42.7975,192.0092 42.7545,191.7602 C42.6975,191.4322 42.6275,191.0252 42.6275,190.2872 C42.6275,189.3712 42.8275,188.8332 42.9595,188.4772 C43.0375,188.2672 43.0535,188.2232 43.0535,187.9902 C43.0535,187.3702 43.0685,187.0612 43.0845,186.7502 C43.0965,186.4862 43.1095,186.2232 43.1095,185.6942 C43.1095,185.0902 43.1195,184.7872 43.1295,184.4852 C43.1375,184.2132 43.1465,183.9422 43.1465,183.3992 C43.1465,182.9472 43.1205,182.7482 43.0875,182.4952 C43.0475,182.1852 42.9975,181.7982 42.9975,181.1012 C42.9975,180.8372 42.9755,180.7722 42.9035,180.5572 C42.7875,180.2102 42.6115,179.6872 42.6115,178.8012 C42.6115,178.3152 42.5885,178.0712 42.5665,177.8282 C42.5355,177.4972 42.5045,177.1652 42.5045,176.5022 C42.5045,175.8312 42.5405,175.4762 42.5725,175.1612 C42.5965,174.9222 42.6215,174.6832 42.6215,174.2042 C42.6215,173.6422 42.6175,173.3602 42.6145,173.0782 C42.6115,172.7852 42.6075,172.4922 42.6075,171.9062 C42.6075,171.2712 42.6285,170.9522 42.6495,170.6352 C42.6655,170.3782 42.6825,170.1222 42.6825,169.6102 C42.6825,168.8312 42.7965,168.3722 42.9235,167.9342 C42.9875,167.7102 43.0135,167.6172 43.0135,167.3122 C43.0135,166.5632 43.0905,166.1492 43.1525,165.8172 C43.1965,165.5732 43.2265,165.4132 43.2265,165.0122 C43.2265,164.5732 43.1995,164.3892 43.1625,164.1342 C43.1165,163.8182 43.0605,163.4242 43.0605,162.7122 C43.0605,162.0762 43.0805,161.7592 43.1015,161.4412 C43.1175,161.1842 43.1345,160.9272 43.1345,160.4142 C43.1345,160.0452 43.1055,159.9132 43.0525,159.6722 C42.9815,159.3452 42.8835,158.8972 42.8835,158.1162 C42.8835,157.2562 43.0575,156.7362 43.2365,156.2772 C43.3185,156.0672 43.3315,156.0342 43.3315,155.8182 C43.3315,155.4732 43.3025,155.3562 43.2445,155.1222 C43.1615,154.7852 43.0475,154.3222 43.0475,153.5172 C43.0475,153.2302 43.0225,153.1482 42.9545,152.9302 C42.8165,152.4822 42.6925,152.0142 42.6925,151.2182 C42.6925,150.4292 42.8125,149.9652 42.9455,149.5222 C43.0125,149.2982 43.0375,149.2142 43.0375,148.9192 C43.0375,148.4972 43.0085,148.3192 42.9685,148.0732 C42.9165,147.7502 42.8515,147.3482 42.8515,146.6202 C42.8515,145.7112 43.0625,145.1662 43.2785,144.6872 C43.3575,144.5132 43.3685,144.4882 43.3695,144.3792 C43.3535,144.3582 43.3365,144.3372 43.3195,144.3152 C43.0355,143.9362 42.5045,143.2322 42.5045,142.0212 C42.5045,141.3752 42.5285,141.0522 42.5525,140.7292 C42.5715,140.4772 42.5905,140.2252 42.5905,139.7212 C42.5905,139.0642 42.6185,138.7352 42.6475,138.4062 C42.6685,138.1602 42.6905,137.9132 42.6905,137.4202 C42.6905,136.6222 42.8155,136.1532 42.9545,135.7062 C43.0245,135.4832 43.0475,135.4082 43.0475,135.1232 C43.0475,134.8452 43.0245,134.7712 42.9545,134.5512 C42.8125,134.1012 42.6835,133.6302 42.6835,132.8292 C42.6835,132.0132 42.8045,131.5462 42.8925,131.2052 C42.9515,130.9792 42.9805,130.8652 42.9805,130.5322 C42.9805,130.0612 42.9545,129.8242 42.9285,129.5892 C42.8945,129.2712 42.8555,128.9102 42.8555,128.2332 C42.8555,127.3222 43.0685,126.7782 43.2865,126.2962 C43.3775,126.0972 43.3775,126.0972 43.3775,125.9342 C43.3765,125.9282 43.3435,125.8852 43.3145,125.8402 C43.0685,125.4722 42.6115,124.7862 42.6115,123.6362 C42.6115,122.7562 42.8005,122.2262 42.9945,121.7572 C43.0815,121.5502 43.0885,121.5322 43.0885,121.3372 C43.0885,120.7212 43.1015,120.4132 43.1145,120.1052 C43.1255,119.8372 43.1375,119.5692 43.1375,119.0352 C43.1375,118.5482 43.1145,118.3042 43.0925,118.0612 C43.0625,117.7292 43.0315,117.3992 43.0315,116.7362 C43.0315,116.2222 43.0155,115.9642 42.9985,115.7062 C42.9785,115.3892 42.9585,115.0702 42.9585,114.4352 C42.9585,114.2642 42.9585,114.2642 42.8665,114.0572 C42.6545,113.5792 42.4465,113.0372 42.4465,112.1342 C42.4465,111.0532 42.8095,110.4182 43.0265,110.0382 C43.0535,109.9912 43.0845,109.9452 43.1065,109.8922 C43.1045,109.3862 43.0785,109.1982 43.0435,108.9402 C42.9995,108.6262 42.9465,108.2362 42.9465,107.5302 C42.9465,106.8372 42.9935,106.4532 43.0315,106.1462 C43.0635,105.8892 43.0885,105.6862 43.0885,105.2282 C43.0885,105.1012 43.0885,105.1012 43.0015,104.9262 C42.8195,104.5612 42.5135,103.9492 42.5135,102.9242 C42.5135,102.3902 42.5025,102.1222 42.4915,101.8562 C42.4785,101.5482 42.4655,101.2402 42.4655,100.6262 C42.4655,99.5352 42.8395,98.8962 43.0625,98.5142 C43.0895,98.4682 43.1205,98.4232 43.1435,98.3692 C43.1385,97.6872 43.1595,97.3672 43.1805,97.0472 C43.1975,96.7912 43.2145,96.5342 43.2145,96.0202 C43.2145,95.5162 43.1945,95.2642 43.1755,95.0122 C43.1525,94.6882 43.1275,94.3632 43.1275,93.7162 C43.1275,92.9892 43.1915,92.5882 43.2415,92.2662 C43.2815,92.0172 43.3095,91.8372 43.3095,91.4112 C43.2975,91.3512 43.2665,91.3062 43.2375,91.2602 C42.9965,90.8712 42.5935,90.2222 42.5935,89.1032 C42.5935,88.2332 42.7735,87.7082 42.9575,87.2442 C43.0415,87.0332 43.0525,87.0062 43.0525,86.7942 C43.0525,85.7422 43.9045,84.8912 44.9555,84.8912 C46.0065,84.8912 46.8585,85.7422 46.8585,86.7942 C46.8585,87.6622 46.6785,88.1882 46.4945,88.6512 C46.4105,88.8622 46.3995,88.8902 46.3995,89.1032 C46.4115,89.1622 46.4425,89.2072 46.4715,89.2532 C46.7125,89.6422 47.1155,90.2912 47.1155,91.4112 C47.1155,92.1372 47.0525,92.5382 47.0015,92.8612 C46.9615,93.1102 46.9335,93.2892 46.9335,93.7162 C46.9335,94.2212 46.9525,94.4732 46.9715,94.7252 C46.9955,95.0492 47.0205,95.3732 47.0205,96.0202 C47.0205,96.6582 46.9995,96.9782 46.9785,97.2972 C46.9615,97.5542 46.9445,97.8112 46.9445,98.3242 C46.9445,99.4152 46.5705,100.0542 46.3475,100.4362 C46.3205,100.4832 46.2895,100.5282 46.2665,100.5812 C46.2715,101.1602 46.2825,101.4282 46.2945,101.6952 C46.3075,102.0032 46.3195,102.3102 46.3195,102.9242 C46.3195,103.0522 46.3195,103.0522 46.4075,103.2272 C46.5895,103.5922 46.8945,104.2032 46.8945,105.2282 C46.8945,105.9202 46.8475,106.3042 46.8095,106.6122 C46.7775,106.8692 46.7525,107.0712 46.7525,107.5302 C46.7525,107.9762 46.7785,108.1622 46.8145,108.4222 C46.8575,108.7362 46.9105,109.1262 46.9105,109.8312 C46.9105,110.9122 46.5475,111.5482 46.3305,111.9272 C46.3035,111.9752 46.2735,112.0202 46.2505,112.0742 C46.2525,112.3052 46.2525,112.3052 46.3445,112.5112 C46.5565,112.9882 46.7645,113.5302 46.7645,114.4352 C46.7645,114.9492 46.7805,115.2072 46.7975,115.4642 C46.8175,115.7822 46.8375,116.1002 46.8375,116.7362 C46.8375,117.2242 46.8605,117.4682 46.8825,117.7112 C46.9125,118.0422 46.9435,118.3732 46.9435,119.0352 C46.9435,119.6522 46.9305,119.9592 46.9175,120.2682 C46.9055,120.5352 46.8945,120.8022 46.8945,121.3372 C46.8945,122.2172 46.7045,122.7472 46.5105,123.2152 C46.4245,123.4232 46.4175,123.4412 46.4175,123.6362 C46.4185,123.6412 46.4515,123.6842 46.4805,123.7292 C46.7265,124.0972 47.1835,124.7822 47.1835,125.9342 C47.1835,126.8442 46.9705,127.3892 46.7525,127.8692 C46.6615,128.0692 46.6615,128.0692 46.6615,128.2332 C46.6615,128.7052 46.6875,128.9412 46.7125,129.1772 C46.7475,129.4942 46.7865,129.8552 46.7865,130.5322 C46.7865,131.3492 46.6655,131.8162 46.5775,132.1562 C46.5195,132.3832 46.4895,132.4962 46.4895,132.8292 C46.4895,133.1092 46.5135,133.1822 46.5835,133.4012 C46.7255,133.8512 46.8545,134.3212 46.8545,135.1232 C46.8545,135.9212 46.7285,136.3902 46.5895,136.8382 C46.5195,137.0612 46.4965,137.1362 46.4965,137.4202 C46.4965,138.0772 46.4675,138.4052 46.4395,138.7352 C46.4185,138.9812 46.3965,139.2282 46.3965,139.7212 C46.3965,140.3662 46.3725,140.6902 46.3485,141.0122 C46.3305,141.2542 46.3125,141.4962 46.3105,141.9602 C46.3275,141.9822 46.3445,142.0032 46.3615,142.0262 C46.6455,142.4032 47.1765,143.1092 47.1765,144.3192 C47.1765,145.2282 46.9655,145.7732 46.7485,146.2522 C46.6575,146.4542 46.6575,146.4542 46.6575,146.6202 C46.6575,147.0412 46.6865,147.2192 46.7265,147.4652 C46.7785,147.7882 46.8435,148.1922 46.8435,148.9192 C46.8435,149.7082 46.7235,150.1722 46.5905,150.6162 C46.5235,150.8392 46.4985,150.9232 46.4985,151.2182 C46.4985,151.5052 46.5235,151.5872 46.5915,151.8052 C46.7295,152.2522 46.8545,152.7202 46.8545,153.5172 C46.8545,153.8612 46.8825,153.9782 46.9405,154.2122 C47.0235,154.5492 47.1375,155.0112 47.1375,155.8182 C47.1375,156.6782 46.9625,157.1982 46.7835,157.6572 C46.7015,157.8672 46.6895,157.9002 46.6895,158.1162 C46.6895,158.4862 46.7185,158.6172 46.7715,158.8592 C46.8425,159.1862 46.9405,159.6342 46.9405,160.4142 C46.9405,161.0512 46.9205,161.3682 46.8995,161.6862 C46.8825,161.9442 46.8665,162.1992 46.8665,162.7122 C46.8665,163.1522 46.8925,163.3352 46.9305,163.5912 C46.9755,163.9072 47.0325,164.3012 47.0325,165.0122 C47.0325,165.7612 46.9565,166.1752 46.8945,166.5082 C46.8495,166.7502 46.8195,166.9112 46.8195,167.3122 C46.8195,168.0902 46.7065,168.5492 46.5795,168.9882 C46.5155,169.2122 46.4885,169.3042 46.4885,169.6102 C46.4885,170.2462 46.4675,170.5642 46.4475,170.8822 C46.4305,171.1392 46.4135,171.3952 46.4135,171.9062 C46.4135,172.4712 46.4175,172.7522 46.4205,173.0332 C46.4235,173.3262 46.4275,173.6192 46.4275,174.2042 C46.4275,174.8752 46.3915,175.2322 46.3595,175.5462 C46.3355,175.7842 46.3105,176.0242 46.3105,176.5022 C46.3105,176.9882 46.3335,177.2332 46.3555,177.4762 C46.3865,177.8072 46.4175,178.1392 46.4175,178.8012 C46.4175,179.0662 46.4395,179.1312 46.5115,179.3472 C46.6275,179.6932 46.8035,180.2162 46.8035,181.1012 C46.8035,181.5522 46.8295,181.7512 46.8625,182.0042 C46.9025,182.3142 46.9525,182.7002 46.9525,183.3992 C46.9525,184.0032 46.9435,184.3062 46.9335,184.6092 C46.9245,184.8802 46.9155,185.1522 46.9155,185.6942 C46.9155,186.3152 46.9015,186.6252 46.8855,186.9352 C46.8735,187.1992 46.8605,187.4632 46.8605,187.9902 C46.8605,188.9062 46.6605,189.4442 46.5285,189.8012 C46.4505,190.0112 46.4335,190.0552 46.4335,190.2872 C46.4335,190.6992 46.4625,190.8642 46.5055,191.1132 C46.5615,191.4422 46.6325,191.8492 46.6325,192.5872 C46.6325,192.7362 46.6325,192.7362 46.7205,192.9252 C46.8905,193.2832 47.1745,193.8852 47.1745,194.8862 C47.1745,195.6742 47.0555,196.1382 46.9225,196.5812 C46.8555,196.8042 46.8305,196.8872 46.8305,197.1822 C46.8305,197.9072 46.7665,198.3082 46.7145,198.6312 C46.6745,198.8772 46.6465,199.0552 46.6465,199.4782 C46.6465,199.7522 46.6705,199.8252 46.7395,200.0412 C46.8495,200.3832 47.0165,200.9002 47.0165,201.7732 C47.0165,202.6562 46.8405,203.1792 46.7245,203.5242 C46.6535,203.7382 46.6315,203.8032 46.6315,204.0652 C46.6315,204.6992 46.6105,205.0162 46.5905,205.3332 C46.5735,205.5882 46.5565,205.8432 46.5565,206.3542 C46.5565,206.7102 46.5865,206.8392 46.6405,207.0712 C46.7175,207.4032 46.8225,207.8572 46.8225,208.6492 C46.8225,209.5232 46.6365,210.0502 46.4465,210.5152 C46.3615,210.7252 46.3545,210.7412 46.3545,210.9422 C46.3545,211.1072 46.3545,211.1072 46.4445,211.3092 C46.6585,211.7872 46.8675,212.3292 46.8675,213.2342 C46.8675,214.0552 46.7425,214.5262 46.6525,214.8682 C46.5915,215.0972 46.5635,215.2012 46.5635,215.5272 C46.5635,216.0692 46.5715,216.3422 46.5805,216.6122 C46.5905,216.9142 46.5995,217.2152 46.5995,217.8192 C46.5995,218.6422 46.4725,219.1132 46.3805,219.4572 C46.3195,219.6852 46.2915,219.7882 46.2915,220.1112 C46.3015,220.1622 46.3325,220.2062 46.3605,220.2512 C46.6015,220.6382 47.0035,221.2842 47.0035,222.4012 C47.0035,222.9902 46.9985,223.2852 46.9925,223.5812 C46.9885,223.8602 46.9835,224.1372 46.9835,224.6942 C46.9835,225.3212 46.9645,225.6352 46.9455,225.9502 C46.9315,226.2082 46.9155,226.4662 46.9155,226.9832 C46.9155,227.6502 46.8805,228.0032 46.8495,228.3162 C46.8255,228.5552 46.8015,228.7932 46.8015,229.2712 C46.8015,229.6692 46.8315,229.8282 46.8765,230.0702 C46.9375,230.4022 47.0135,230.8152 47.0135,231.5622 C47.0135,232.6842 46.6055,233.3332 46.3605,233.7212 C46.3325,233.7662 46.3005,233.8102 46.2765,233.8612 C46.2925,234.0112 46.2925,234.0112 46.3825,234.2072 C46.6005,234.6872 46.8135,235.2312 46.8135,236.1392 C46.8135,237.0532 46.6135,237.5902 46.4815,237.9452 C46.4025,238.1572 46.3875,238.1952 46.3875,238.4252 C46.3875,238.4952 46.3945,238.5242 46.3945,238.5252 C46.4125,238.5692 46.4425,238.6142 46.4675,238.6632 C46.6695,239.0352 47.0075,239.6582 47.0075,240.7122 C47.0075,241.4872 46.9115,241.9342 46.8415,242.2592 C46.7905,242.4922 46.7605,242.6342 46.7605,243.0042 C46.7605,243.6002 46.7535,243.8992 46.7455,244.1962 C46.7395,244.4712 46.7325,244.7452 46.7325,245.2942 C46.7325,245.6582 46.7605,245.7902 46.8145,246.0282 C46.8865,246.3562 46.9855,246.8042 46.9855,247.5842 C46.9855,248.6932 46.5915,249.3372 46.3555,249.7222 C46.3275,249.7682 46.2975,249.8122 46.2735,249.8632 C46.2855,250.0602 46.2885,250.0682 46.3765,250.2762 C46.5765,250.7462 46.7725,251.2792 46.7725,252.1662 C46.7725,252.8142 46.7475,253.1382 46.7205,253.4612 C46.7015,253.7102 46.6815,253.9582 46.6815,254.4552 C46.6815,255.2312 46.5695,255.6862 46.4445,256.1232 C46.3815,256.3472 46.3545,256.4402 46.3545,256.7452 C46.3545,257.1912 46.3795,257.3782 46.4145,257.6372 C46.4565,257.9482 46.5085,258.3362 46.5085,259.0362 C46.5085,259.7392 46.4545,260.1292 46.4125,260.4422 C46.3775,260.6942 46.3515,260.8772 46.3505,261.3002 C46.3695,261.3262 46.3885,261.3532 46.4075,261.3792 C46.6675,261.7512 47.1525,262.4432 47.1525,263.6152 C47.1525,264.4032 47.0485,264.8562 46.9725,265.1862 C46.9195,265.4192 46.8895,265.5482 46.8895,265.9042 C46.8895,266.6942 46.7845,267.1482 46.7075,267.4802 C46.6535,267.7112 46.6245,267.8392 46.6245,268.1942 C46.6245,268.4772 46.6475,268.5512 46.7165,268.7722 C46.8565,269.2192 46.9825,269.6882 46.9825,270.4852 C46.9825,271.1542 46.9455,271.5102 46.9135,271.8232 C46.8895,272.0622 46.8645,272.2992 46.8645,272.7742 C46.8645,273.5712 46.7385,274.0392 46.5975,274.4882 C46.5285,274.7082 46.5055,274.7812 46.5055,275.0632 C46.5205,275.1442 46.5505,275.1892 46.5785,275.2352 C46.8055,275.6162 47.1855,276.2552 47.1855,277.3502 C47.1855,278.5222 46.7005,279.2142 46.4415,279.5852 C46.4255,279.6082 46.4095,279.6292 46.3945,279.6522 C46.4055,279.6842 46.4285,279.7152 46.4495,279.7472 C46.6875,280.1122 47.1295,280.7922 47.1295,281.9292 C47.1295,282.4482 47.1435,282.7082 47.1585,282.9682 C47.1755,283.2802 47.1935,283.5942 47.1935,284.2192 C47.1935,284.9752 47.1115,285.3922 47.0465,285.7272 C46.9995,285.9712 46.9705,286.1192 46.9705,286.5072 C46.9705,287.5032 46.6905,288.1022 46.5225,288.4592 C46.4345,288.6472 46.4345,288.6472 46.4345,288.7952 L46.4375,291.0822 C46.4375,291.2872 46.4455,291.3092 46.5295,291.5192 C46.7145,291.9802 46.8945,292.5032 46.8945,293.3692 C46.8945,294.1212 46.8155,294.5372 46.7515,294.8712 C46.7035,295.1172 46.6755,295.2662 46.6755,295.6562 C46.6755,296.4392 46.5595,296.8992 46.4295,297.3392 C46.3635,297.5642 46.3385,297.6482 46.3385,297.9452 C46.3385,298.3982 46.3645,298.5972 46.3965,298.8502 C46.4355,299.1582 46.4855,299.5432 46.4855,300.2362 C46.4855,300.8002 46.4875,301.0802 46.4905,301.3622 C46.4935,301.6532 46.4965,301.9442 46.4965,302.5262 C46.4965,303.1852 46.4655,303.5152 46.4345,303.8452 C46.4125,304.0872 46.3895,304.3282 46.3895,304.8122 C46.3895,305.8632 45.5375,306.7152 44.4865,306.7152" id="Fill-124" fill="#000"/></g></g></g></g><g id="Upper Body" transform="translate(-1.000000, 0.000000) scale(1 1)"><g id="Upper Body/Waving" stroke="none" stroke-width="1" fill="none" fill-rule="evenodd"><g id="Group-691" transform="translate(220.500000, 222.500000)"><g id="Group-285" transform="translate(0.000000, 0.095000)"><path d="M131.8575,79.9957 L177.7735,94.3937 C177.7735,94.3937 196.6615,101.1827 203.1265,93.7957 C218.4975,76.2267 230.3755,55.8647 230.3755,55.8647 C230.3755,55.8647 227.1445,47.6377 227.0565,38.1227 C226.9755,29.3327 228.9785,16.2387 235.7655,16.8377 C241.9695,17.3847 240.3575,33.4067 240.3575,33.4067 C240.3575,33.4067 253.6325,-3.4253 264.8615,0.5427 C264.8615,0.5427 269.2035,3.1627 265.2355,12.5197 C265.2355,12.5197 269.6115,3.5827 275.7915,5.6337 C280.9825,7.3547 276.0905,17.5357 276.0905,17.5357 C276.0905,17.5357 281.2605,11.0977 286.2725,12.8947 C291.699528,14.8417 283.5775,32.9577 283.5775,32.9577 C283.5775,32.9577 287.3955,28.3157 290.6145,30.5617 C293.8335,32.8077 290.0835,47.6447 276.7645,59.9077 C268.5845,67.4387 264.2965,68.8727 259.4715,77.8747 C255.0045,86.2087 243.6505,107.5697 222.2905,127.9327 C203.6525,145.6987 174.0035,132.6057 144.7395,125.3637 L131.8575,79.9957 Z" id="Fill-239" fill="#d46b55"/><path d="M131.8575,80.0319 C131.8575,80.0319 145.0855,80.6589 152.7805,81.0019 C162.6375,81.4399 174.0635,80.7519 171.1915,92.3299 C170.3775,95.6139 160.1795,132.8779 160.1795,132.8779 C160.1795,132.8779 159.1815,137.0349 155.3575,136.0369 C151.5335,135.0399 146.8775,132.9299 146.8775,132.9299 L131.8575,80.0319 Z" id="Fill-241" fill="#A2D249"/><path d="M131.8575,80.0319 L174.6055,230.5859 C176.6265,237.7029 171.2805,244.7779 163.8815,244.7779 L15.2535,244.7779 C7.8635,244.7779 2.6105,237.5859 4.8595,230.5459 L52.9345,80.0319 L131.8575,80.0319 Z" id="Fill-243" fill="#A2D249"/><path d="M4.1016,157.6158 L23.5756,115.8428 C23.5756,115.8428 31.3066,99.2458 44.9216,100.6018 C67.2516,102.8258 55.7826,128.3388 55.7826,128.3388 L41.7496,163.0588 C41.7496,163.0588 36.0466,176.5048 43.4016,186.2508 C49.1006,193.8018 66.6436,218.2778 66.6436,218.2778 C66.6436,218.2778 79.6216,235.1348 73.0096,248.5528 C66.9166,260.9188 47.2636,274.6738 31.2526,262.9698 C11.8426,248.7818 21.7036,228.7978 32.1896,226.7378 L9.6256,199.6798 C9.6256,199.6798 -6.9224,180.9298 4.1016,157.6158" id="Fill-245" fill="#d46b55"/><path d="M78.2051,86.8512 C75.3451,92.7332 84.2761,98.1732 87.5641,91.6192 C91.2841,84.2032 81.4131,80.2532 78.2051,86.8512" id="Fill-247" fill="#F8FBF8"/><path d="M89.8438,96.5778 C86.9848,102.4608 95.9158,107.9008 99.2028,101.3458 C102.9228,93.9298 93.0518,89.9798 89.8438,96.5778" id="Fill-249" fill="#F8FBF8"/><path d="M105.5679,98.3239 C102.7079,104.2059 111.6389,109.6459 114.9269,103.0919 C118.6469,95.6759 108.7759,91.7259 105.5679,98.3239" id="Fill-251" fill="#F8FBF8"/><path d="M119.3804,92.7692 C116.5204,98.6512 125.4514,104.0912 128.7394,97.5372 C132.4594,90.1212 122.5884,86.1712 119.3804,92.7692" id="Fill-253" fill="#F8FBF8"/><path d="M129.9966,86.3707 C132.2916,92.4947 142.3876,89.7667 139.8986,82.8687 C137.0846,75.0637 127.4226,79.5007 129.9966,86.3707" id="Fill-255" fill="#F8FBF8"/><path d="M253.955097,35.6139 C253.7581,35.6139 253.5581,35.5749 253.3651,35.4919 C252.6031,35.1659 252.2501,34.2839 252.5771,33.5219 C254.9751,27.9269 263.5601,12.4489 263.9241,11.7929 C264.3261,11.0689 265.2401,10.8059 265.9641,11.2089 C266.6881,11.6109 266.9491,12.5239 266.5471,13.2489 C266.4591,13.4079 257.6721,29.2489 255.3341,34.7039 C255.0901,35.2729 254.5371,35.6139 253.955097,35.6139" id="Fill-257" fill="#000"/><path d="M264.2632,41.5699 C264.0572,41.5699 263.8472,41.5269 263.6472,41.4359 C262.8922,41.0959 262.5562,40.2079 262.8972,39.4529 C265.1902,34.3689 274.3842,17.5309 274.7742,16.8169 C275.1712,16.0899 276.0832,15.8239 276.8102,16.2189 C277.5372,16.6169 277.8042,17.5279 277.4072,18.2559 C277.3122,18.4289 267.8782,35.7059 265.6312,40.6859 C265.3812,41.2409 264.8352,41.5699 264.2632,41.5699" id="Fill-259" fill="#000"/><path d="M274.2393,47.5846 C273.9643,47.5846 273.6853,47.5086 273.4363,47.3506 C272.7373,46.9056 272.5303,45.9796 272.9743,45.2796 C274.8303,42.3596 282.0603,32.4896 282.3663,32.0706 C282.8573,31.4026 283.7953,31.2596 284.4633,31.7476 C285.1313,32.2366 285.2763,33.1756 284.7863,33.8446 C284.7123,33.9456 277.3093,44.0526 275.5073,46.8896 C275.2203,47.3386 274.7353,47.5846 274.2393,47.5846" id="Fill-261" fill="#000"/><path d="M250.2398,56.8668 C250.1158,56.8668 249.9898,56.8508 249.8638,56.8178 C249.0618,56.6108 248.5788,55.7928 248.7868,54.9908 C251.5928,44.1288 239.5628,34.6888 239.4418,34.5948 C239.0008,34.2548 238.7838,33.6978 238.8798,33.1488 C239.3528,30.4198 240.0688,22.6538 237.7168,19.5468 C237.1568,18.8068 236.4878,18.4208 235.6108,18.3298 C230.5948,17.7888 229.5818,26.9808 229.5718,27.0728 C229.4868,27.8958 228.7508,28.4938 227.9258,28.4098 C227.1018,28.3248 226.5028,27.5898 226.5878,26.7658 C226.6158,26.4828 227.3398,19.8018 231.0378,16.7928 C232.4508,15.6428 234.0938,15.1578 235.9198,15.3458 C237.6338,15.5228 239.0438,16.3278 240.1108,17.7388 C243.2008,21.8248 242.3718,29.9788 241.9708,32.7898 C244.7628,35.1658 254.5978,44.4898 251.6908,55.7408 C251.5168,56.4178 250.9068,56.8668 250.2398,56.8668" id="Fill-263" fill="#000"/><path d="M33.6153,243.4987 C33.3323,243.4987 33.0463,243.4187 32.7913,243.2517 C32.0993,242.7957 31.9083,241.8647 32.3643,241.1737 C33.7443,239.0777 36.1143,236.5907 37.4653,235.2357 L31.0483,227.7107 C30.5103,227.0807 30.5853,226.1347 31.2163,225.5967 C31.8453,225.0587 32.7933,225.1347 33.3303,225.7647 L40.6563,234.3537 C41.1743,234.9617 41.1263,235.8677 40.5473,236.4167 C40.5083,236.4527 36.6463,240.1247 34.8693,242.8237 C34.5813,243.2617 34.1033,243.4987 33.6153,243.4987" id="Fill-265" fill="#000"/><path d="M52.9341,80.0319 C52.9341,80.0319 34.3121,78.5079 26.6641,94.6049 C20.6071,107.3519 10.8501,112.9429 6.4291,121.0029 C4.5231,124.4769 5.8481,128.8389 9.3591,130.6779 L46.8511,150.3219 C50.2471,152.1009 53.8591,150.4569 56.3191,147.5149 C61.7471,141.0249 65.2621,127.8519 67.7331,121.4049 C73.9341,105.2209 75.1731,81.0429 52.9341,80.0319" id="Fill-267" fill="#A2D249"/><path d="M53.5513,151.4235 C53.3133,151.4235 53.0723,151.3665 52.8473,151.2475 C52.1163,150.8585 51.8393,149.9495 52.2283,149.2185 C52.3983,148.9005 69.2173,117.3025 72.5663,109.8465 C72.9053,109.0905 73.7923,108.7525 74.5493,109.0935 C75.3043,109.4325 75.6413,110.3195 75.3023,111.0755 C71.9123,118.6225 55.5713,149.3245 54.8773,150.6285 C54.6073,151.1345 54.0883,151.4235 53.5513,151.4235" id="Fill-269" fill="#000"/><path d="M146.8931,134.4264 C146.2391,134.4264 145.6381,133.9944 145.4511,133.3344 C145.2231,132.5294 145.2511,132.0264 145.2721,131.6584 C145.2871,131.4074 145.2931,131.2924 145.2021,130.9724 C145.1221,130.6924 145.0701,130.6244 144.9141,130.4264 C144.6141,130.0414 144.3261,129.6324 144.1041,128.8514 C143.9801,128.4134 143.8951,128.2394 143.7791,127.9954 C143.6391,127.7054 143.4651,127.3444 143.2701,126.6574 C142.9901,125.6714 143.1981,124.9904 143.3221,124.5834 C143.3961,124.3424 143.3961,124.3424 143.3571,124.2054 C143.3211,124.1324 143.2271,124.0664 143.1601,124.0174 C142.7741,123.7394 142.1281,123.2774 141.8251,122.2114 C141.5851,121.3644 141.6481,120.8104 141.6901,120.4434 C141.7191,120.1954 141.7281,120.1114 141.6501,119.8344 C141.4411,119.1004 141.4261,118.6664 141.4131,118.3194 C141.4041,118.0674 141.3981,117.9014 141.2891,117.5154 C141.2501,117.3794 141.2501,117.3794 141.0601,117.2124 C140.7411,116.9324 140.2061,116.4624 139.9261,115.4754 C139.6471,114.4934 139.8501,113.8164 139.9711,113.4114 C140.0431,113.1674 140.0431,113.1674 140.0031,113.0264 C139.9501,112.8374 139.9321,112.8194 139.7531,112.6394 C139.4581,112.3414 139.0121,111.8914 138.7471,110.9584 C138.5211,110.1604 138.9831,109.3314 139.7811,109.1064 C140.5781,108.8814 141.4071,109.3424 141.6331,110.1394 C141.6861,110.3284 141.7051,110.3474 141.8831,110.5274 C142.1791,110.8244 142.6241,111.2744 142.8901,112.2064 C143.1681,113.1904 142.9661,113.8664 142.8451,114.2714 C142.7721,114.5154 142.7721,114.5154 142.8121,114.6554 C142.8511,114.7914 142.8511,114.7914 143.0401,114.9584 C143.3601,115.2394 143.8941,115.7084 144.1751,116.6964 C144.3841,117.4314 144.3991,117.8644 144.4121,118.2124 C144.4201,118.4634 144.4261,118.6294 144.5361,119.0154 C144.7761,119.8624 144.7131,120.4164 144.6711,120.7834 C144.6431,121.0324 144.6331,121.1154 144.7111,121.3914 C144.7471,121.4634 144.8401,121.5304 144.9091,121.5794 C145.2941,121.8564 145.9401,122.3204 146.2431,123.3864 C146.5231,124.3714 146.3151,125.0534 146.1911,125.4594 C146.1171,125.7014 146.1171,125.7014 146.1561,125.8384 C146.2811,126.2774 146.3651,126.4514 146.4811,126.6944 C146.6221,126.9844 146.7951,127.3454 146.9901,128.0314 C147.0691,128.3114 147.1261,128.3844 147.2781,128.5774 C147.5781,128.9624 147.8671,129.3714 148.0881,130.1544 C148.3171,130.9594 148.2881,131.4624 148.2671,131.8294 C148.2531,132.0814 148.2471,132.1964 148.3371,132.5164 C148.5631,133.3134 148.1001,134.1434 147.3031,134.3684 C147.1661,134.4074 147.0291,134.4264 146.8931,134.4264" id="Fill-271" fill="#000"/><polygon id="Fill-273" fill="#000" points="11.6617 141.3981 45.5937 153.6271 46.8517 150.3221 15.2257 133.7521"/><polygon id="Fill-275" fill="#000" points="169.191 132.0592 174.534 93.3782 171.191 92.3302 161.037 129.7762"/><path d="M198.253,131.7252 C197.442,131.7252 196.934,131.6962 196.831,131.6892 C196.004,131.6372 195.377,130.9252 195.428,130.0992 C195.48,129.2742 196.192,128.6462 197.018,128.6952 C197.147,128.7042 210.028,129.4062 216.435,122.3892 C216.993,121.7772 217.942,121.7332 218.554,122.2922 C219.166,122.8512 219.209,123.7992 218.65,124.4122 C212.561,131.0812 202.07,131.7252 198.253,131.7252" id="Fill-277" fill="#000"/><path d="M7.4869,185.4674 C6.8539,185.4674 6.2649,185.0634 6.0599,184.4274 C2.2579,172.6334 6.7259,163.3634 6.9189,162.9754 C7.2849,162.2324 8.1849,161.9274 8.9269,162.2944 C9.6699,162.6604 9.9749,163.5594 9.6089,164.3014 C9.5399,164.4454 5.5129,172.9514 8.9149,183.5074 C9.1689,184.2954 8.7359,185.1404 7.9469,185.3954 C7.7949,185.4444 7.6399,185.4674 7.4869,185.4674" id="Fill-279" fill="#000"/><path d="M108.4263,50.8785 L97.0273,50.8785 C91.8733,50.8785 87.4873,54.5725 86.5713,59.6145 C86.5613,59.6775 86.5523,59.7375 86.5433,59.8005 L86.5373,59.8345 C86.5003,60.0805 86.4623,60.3305 86.4253,60.5795 C85.0983,69.3205 83.4603,80.0315 83.4603,80.0315 L118.8933,80.0315 L118.9653,72.2665 L119.0633,61.6145 C119.1183,55.7015 114.3403,50.8785 108.4263,50.8785" id="Fill-281" fill="#d46b55"/><path d="M118.8931,80.0319 C105.0181,79.0559 101.2271,76.0809 101.3611,73.6039 C101.4801,71.3859 103.5651,71.6949 104.4761,71.7159 C108.4901,71.8049 118.9651,72.2659 118.9651,72.2659" id="Fill-283" fill="#000"/></g></g></g></g><g id="Head" transform="translate(204.000000, 145.000000) scale(1 1)"><g id="Head/Bob 2" stroke="none" stroke-width="1" fill="none" fill-rule="evenodd"><g id="Group-183" transform="translate(81.000000, 81.000000)"><g id="Group-132" transform="translate(0.000000, 0.738000)"><path d="M70.9139,41.2262 C70.4979,37.5502 64.2529,38.0332 62.1899,38.2942 C60.6739,31.4262 58.9469,24.8372 57.4059,21.9562 C54.7019,16.8982 46.4549,11.5832 33.2659,13.6242 C24.5089,14.9802 15.1829,23.1492 21.2399,37.3702 C21.2399,37.3702 22.9729,40.8182 22.1429,46.5012 C22.0519,47.1282 21.9219,48.0022 21.7659,49.0442 L21.7649,49.0512 C21.5009,50.8112 21.1609,53.0682 20.7879,55.5322 C20.7779,55.5942 20.7679,55.6562 20.7589,55.7182 L20.7539,55.7522 C20.7169,55.9972 20.6789,56.2482 20.6409,56.4972 C20.4119,59.0862 21.1179,67.5632 40.1949,67.6592 L53.1809,68.1842 L53.3789,68.1922 C53.3789,68.1922 57.7299,68.1442 60.3639,68.1442 C65.8379,68.1442 66.7789,62.9252 66.1639,59.0632 C65.9169,57.5112 65.0309,52.2972 63.8289,46.1822 C65.8499,45.9062 71.3219,44.8252 70.9139,41.2262" id="Fill-126" fill="#d46b55"/><path d="M66.7787,30.1979 C66.7787,30.1979 68.9817,0.8349 39.2007,0.885833641 C12.3487,0.9299 11.4547,23.8219 11.4547,23.8219 L11.4547,41.4339 C11.4547,48.1799 8.9937,54.6959 4.5337,59.7579 L1.0137,63.7509 C-0.8953,65.9179 0.6437,69.3249 3.5317,69.3249 L21.0737,69.3249 C30.1627,68.3759 33.6807,56.6999 34.9097,50.5429 C35.2767,48.7069 34.0827,46.9559 32.2547,46.5539 C29.6777,45.9889 26.4017,44.2939 26.2527,39.3599 C26.0217,31.7079 35.5017,31.9609 35.5017,31.9609 L66.7787,30.1979 Z" id="Fill-128" fill="#ff00bf"/><path d="M35.0297,60.5368 C34.2017,60.5368 33.5297,59.8648 33.5297,59.0368 C33.5297,58.5078 33.5037,58.2428 33.4767,57.9778 C33.4447,57.6598 33.4087,57.2998 33.4087,56.6208 C33.4087,56.3618 33.3817,56.3068 33.2657,56.0688 C33.0887,55.7048 32.8207,55.1538 32.8207,54.2048 C32.8207,53.1058 33.2857,52.4788 33.5627,52.1048 C33.7157,51.8998 33.7157,51.8998 33.7157,51.7928 C33.7157,51.2698 33.6867,51.0088 33.6587,50.7478 C33.6247,50.4278 33.5857,50.0648 33.5857,49.3818 C33.5857,48.9878 33.5427,48.8378 33.4707,48.5868 C33.3747,48.2478 33.2417,47.7828 33.2417,46.9708 C33.2417,46.1408 33.9137,45.4708 34.7417,45.4708 C35.5697,45.4708 36.2417,46.1408 36.2417,46.9708 C36.2417,47.3628 36.2847,47.5148 36.3557,47.7648 C36.4527,48.1038 36.5857,48.5688 36.5857,49.3818 C36.5857,49.9038 36.6137,50.1648 36.6417,50.4268 C36.6757,50.7458 36.7157,51.1088 36.7157,51.7928 C36.7157,52.8908 36.2507,53.5168 35.9727,53.8918 C35.8207,54.0978 35.8207,54.0978 35.8207,54.2048 C35.8207,54.4628 35.8477,54.5188 35.9637,54.7568 C36.1407,55.1208 36.4087,55.6708 36.4087,56.6208 C36.4087,57.1498 36.4347,57.4148 36.4617,57.6798 C36.4937,57.9968 36.5297,58.3568 36.5297,59.0368 C36.5297,59.8648 35.8577,60.5368 35.0297,60.5368" id="Fill-130" fill="#EFD638"/></g></g></g></g><g id="Expression" transform="translate(315.000000, 246.000000) scale(1 1)"><g id="Expression/Smile" stroke="none" stroke-width="1" fill="none" fill-rule="evenodd"><g id="Expression" transform="translate(14.000000, 12.000000)" fill="#000"><path d="M8.5371,3.6102 C8.8431,6.5462 13.2671,6.1902 13.3041,3.3662 C13.3451,0.1732 8.1761,0.1392 8.5371,3.6102" id="Fill-95"/><path d="M3.8824,24.6669 C10.1784,28.8049 17.2924,27.1859 17.6314,27.1049 C18.4374,26.9129 18.9354,26.1039 18.7434,25.2989 C18.5514,24.4919 17.7444,23.9949 16.9394,24.1859 C16.8054,24.2169 9.0204,25.9289 3.5054,20.5259 C2.9134,19.9499 1.9634,19.9569 1.3834,20.5479 C0.8044,21.1409 0.8144,22.0899 1.4064,22.6699 C2.2044,23.4509 3.0364,24.1109 3.8824,24.6669" id="Fill-97"/></g></g></g><g id="Facial Hair" transform="translate(311.300000, 250.950000) scale(1 1)"><g id="Facial Hair/None" stroke="none" stroke-width="1" fill="none" fill-rule="evenodd" fill-opacity="0"/></g><g id="Accesories" transform="translate(311.300000, 250.950000) scale(1 1)"><g id="Accesories/None" stroke="none" stroke-width="1" fill="none" fill-rule="evenodd" fill-opacity="0"/></g></g></g></g></svg>